<svg id="my-svg" width="100%" xmlns="http://www.w3.org/2000/svg" xmlns:xlink="http://www.w3.org/1999/xlink" class="flowchart" style="max-width: 1786.22px; background-color: transparent;" viewBox="0 0 1786.2215576171875 2345" role="graphics-document document" aria-roledescription="flowchart-v2"><style>#my-svg{font-family:"trebuchet ms",verdana,arial,sans-serif;font-size:16px;fill:#333;}@keyframes edge-animation-frame{from{stroke-dashoffset:0;}}@keyframes dash{to{stroke-dashoffset:0;}}#my-svg .edge-animation-slow{stroke-dasharray:9,5!important;stroke-dashoffset:900;animation:dash 50s linear infinite;stroke-linecap:round;}#my-svg .edge-animation-fast{stroke-dasharray:9,5!important;stroke-dashoffset:900;animation:dash 20s linear infinite;stroke-linecap:round;}#my-svg .error-icon{fill:#552222;}#my-svg .error-text{fill:#552222;stroke:#552222;}#my-svg .edge-thickness-normal{stroke-width:1px;}#my-svg .edge-thickness-thick{stroke-width:3.5px;}#my-svg .edge-pattern-solid{stroke-dasharray:0;}#my-svg .edge-thickness-invisible{stroke-width:0;fill:none;}#my-svg .edge-pattern-dashed{stroke-dasharray:3;}#my-svg .edge-pattern-dotted{stroke-dasharray:2;}#my-svg .marker{fill:#333333;stroke:#333333;}#my-svg .marker.cross{stroke:#333333;}#my-svg svg{font-family:"trebuchet ms",verdana,arial,sans-serif;font-size:16px;}#my-svg p{margin:0;}#my-svg .label{font-family:"trebuchet ms",verdana,arial,sans-serif;color:#333;}#my-svg .cluster-label text{fill:#333;}#my-svg .cluster-label span{color:#333;}#my-svg .cluster-label span p{background-color:transparent;}#my-svg .label text,#my-svg span{fill:#333;color:#333;}#my-svg .node rect,#my-svg .node circle,#my-svg .node ellipse,#my-svg .node polygon,#my-svg .node path{fill:#ECECFF;stroke:#9370DB;stroke-width:1px;}#my-svg .rough-node .label text,#my-svg .node .label text,#my-svg .image-shape .label,#my-svg .icon-shape .label{text-anchor:middle;}#my-svg .node .katex path{fill:#000;stroke:#000;stroke-width:1px;}#my-svg .rough-node .label,#my-svg .node .label,#my-svg .image-shape .label,#my-svg .icon-shape .label{text-align:center;}#my-svg .node.clickable{cursor:pointer;}#my-svg .root .anchor path{fill:#333333!important;stroke-width:0;stroke:#333333;}#my-svg .arrowheadPath{fill:#333333;}#my-svg .edgePath .path{stroke:#333333;stroke-width:1px;}#my-svg .flowchart-link{stroke:#333333;fill:none;}#my-svg .edgeLabel{background-color:rgba(232,232,232, 0.8);text-align:center;}#my-svg .edgeLabel p{background-color:rgba(232,232,232, 0.8);}#my-svg .edgeLabel rect{opacity:0.5;background-color:rgba(232,232,232, 0.8);fill:rgba(232,232,232, 0.8);}#my-svg .labelBkg{background-color:rgba(232, 232, 232, 0.5);}#my-svg .cluster rect{fill:#ffffde;stroke:#aaaa33;stroke-width:1px;}#my-svg .cluster text{fill:#333;}#my-svg .cluster span{color:#333;}#my-svg div.mermaidTooltip{position:absolute;text-align:center;max-width:200px;padding:2px;font-family:"trebuchet ms",verdana,arial,sans-serif;font-size:12px;background:hsl(80, 100%, 96.2745098039%);border:1px solid #aaaa33;border-radius:2px;pointer-events:none;z-index:100;}#my-svg .flowchartTitleText{text-anchor:middle;font-size:18px;fill:#333;}#my-svg rect.text{fill:none;stroke-width:0;}#my-svg .icon-shape,#my-svg .image-shape{background-color:rgba(232,232,232, 0.8);text-align:center;}#my-svg .icon-shape p,#my-svg .image-shape p{background-color:rgba(232,232,232, 0.8);padding:2px;}#my-svg .icon-shape .label rect,#my-svg .image-shape .label rect{opacity:0.5;background-color:rgba(232,232,232, 0.8);fill:rgba(232,232,232, 0.8);}#my-svg .label-icon{display:inline-block;height:1em;overflow:visible;vertical-align:-0.125em;}#my-svg .node .label-icon path{fill:currentColor;stroke:revert;stroke-width:revert;}#my-svg .node .neo-node{stroke:#9370DB;}#my-svg [data-look="neo"].node rect,#my-svg [data-look="neo"].cluster rect,#my-svg [data-look="neo"].node polygon{stroke:#9370DB;filter:drop-shadow(1px 2px 2px rgba(185, 185, 185, 1));}#my-svg [data-look="neo"].swimlane.cluster rect{filter:none;}#my-svg [data-look="neo"].node path{stroke:#9370DB;stroke-width:1px;}#my-svg [data-look="neo"].node .outer-path{filter:drop-shadow(1px 2px 2px rgba(185, 185, 185, 1));}#my-svg [data-look="neo"].node .neo-line path{stroke:#9370DB;filter:none;}#my-svg [data-look="neo"].node circle{stroke:#9370DB;filter:drop-shadow(1px 2px 2px rgba(185, 185, 185, 1));}#my-svg [data-look="neo"].node circle .state-start{fill:#000000;}#my-svg [data-look="neo"].icon-shape .icon{fill:#9370DB;filter:drop-shadow(1px 2px 2px rgba(185, 185, 185, 1));}#my-svg [data-look="neo"].icon-shape .icon-neo path{stroke:#9370DB;filter:drop-shadow(1px 2px 2px rgba(185, 185, 185, 1));}#my-svg :root{--mermaid-font-family:"trebuchet ms",verdana,arial,sans-serif;}</style><g><marker id="my-svg_flowchart-v2-pointEnd" class="marker flowchart-v2" viewBox="0 0 10 10" refX="5" refY="5" markerUnits="userSpaceOnUse" markerWidth="8" markerHeight="8" orient="auto"><path d="M 0 0 L 10 5 L 0 10 z" class="arrowMarkerPath" style="stroke-width: 1; stroke-dasharray: 1, 0;"/></marker><marker id="my-svg_flowchart-v2-pointStart" class="marker flowchart-v2" viewBox="0 0 10 10" refX="4.5" refY="5" markerUnits="userSpaceOnUse" markerWidth="8" markerHeight="8" orient="auto"><path d="M 0 5 L 10 10 L 10 0 z" class="arrowMarkerPath" style="stroke-width: 1; stroke-dasharray: 1, 0;"/></marker><marker id="my-svg_flowchart-v2-pointEnd-margin" class="marker flowchart-v2" viewBox="0 0 11.5 14" refX="11.5" refY="7" markerUnits="userSpaceOnUse" markerWidth="10.5" markerHeight="14" orient="auto"><path d="M 0 0 L 11.5 7 L 0 14 z" class="arrowMarkerPath" style="stroke-width: 0; stroke-dasharray: 1, 0;"/></marker><marker id="my-svg_flowchart-v2-pointStart-margin" class="marker flowchart-v2" viewBox="0 0 11.5 14" refX="1" refY="7" markerUnits="userSpaceOnUse" markerWidth="11.5" markerHeight="14" orient="auto"><polygon points="0,7 11.5,14 11.5,0" class="arrowMarkerPath" style="stroke-width: 0; stroke-dasharray: 1, 0;"/></marker><marker id="my-svg_flowchart-v2-circleEnd" class="marker flowchart-v2" viewBox="0 0 10 10" refX="11" refY="5" markerUnits="userSpaceOnUse" markerWidth="11" markerHeight="11" orient="auto"><circle cx="5" cy="5" r="5" class="arrowMarkerPath" style="stroke-width: 1; stroke-dasharray: 1, 0;"/></marker><marker id="my-svg_flowchart-v2-circleStart" class="marker flowchart-v2" viewBox="0 0 10 10" refX="-1" refY="5" markerUnits="userSpaceOnUse" markerWidth="11" markerHeight="11" orient="auto"><circle cx="5" cy="5" r="5" class="arrowMarkerPath" style="stroke-width: 1; stroke-dasharray: 1, 0;"/></marker><marker id="my-svg_flowchart-v2-circleEnd-margin" class="marker flowchart-v2" viewBox="0 0 10 10" refY="5" refX="12.25" markerUnits="userSpaceOnUse" markerWidth="14" markerHeight="14" orient="auto"><circle cx="5" cy="5" r="5" class="arrowMarkerPath" style="stroke-width: 0; stroke-dasharray: 1, 0;"/></marker><marker id="my-svg_flowchart-v2-circleStart-margin" class="marker flowchart-v2" viewBox="0 0 10 10" refX="-2" refY="5" markerUnits="userSpaceOnUse" markerWidth="14" markerHeight="14" orient="auto"><circle cx="5" cy="5" r="5" class="arrowMarkerPath" style="stroke-width: 0; stroke-dasharray: 1, 0;"/></marker><marker id="my-svg_flowchart-v2-crossEnd" class="marker cross flowchart-v2" viewBox="0 0 11 11" refX="12" refY="5.2" markerUnits="userSpaceOnUse" markerWidth="11" markerHeight="11" orient="auto"><path d="M 1,1 l 9,9 M 10,1 l -9,9" class="arrowMarkerPath" style="stroke-width: 2; stroke-dasharray: 1, 0;"/></marker><marker id="my-svg_flowchart-v2-crossStart" class="marker cross flowchart-v2" viewBox="0 0 11 11" refX="-1" refY="5.2" markerUnits="userSpaceOnUse" markerWidth="11" markerHeight="11" orient="auto"><path d="M 1,1 l 9,9 M 10,1 l -9,9" class="arrowMarkerPath" style="stroke-width: 2; stroke-dasharray: 1, 0;"/></marker><marker id="my-svg_flowchart-v2-crossEnd-margin" class="marker cross flowchart-v2" viewBox="0 0 15 15" refX="17.7" refY="7.5" markerUnits="userSpaceOnUse" markerWidth="12" markerHeight="12" orient="auto"><path d="M 1,1 L 14,14 M 1,14 L 14,1" class="arrowMarkerPath" style="stroke-width: 2.5;"/></marker><marker id="my-svg_flowchart-v2-crossStart-margin" class="marker cross flowchart-v2" viewBox="0 0 15 15" refX="-3.5" refY="7.5" markerUnits="userSpaceOnUse" markerWidth="12" markerHeight="12" orient="auto"><path d="M 1,1 L 14,14 M 1,14 L 14,1" class="arrowMarkerPath" style="stroke-width: 2.5; stroke-dasharray: 1, 0;"/></marker><g class="root"><g class="clusters"><g class="cluster" id="my-svg-SOC" data-look="classic"><rect style="" x="1014.265625" y="338" width="720.0329494476318" height="1033"/><g class="cluster-label" transform="translate(1193.352412223816, 338)"><foreignObject width="361.859375" height="24"><div xmlns="http://www.w3.org/1999/xhtml" style="display: table-cell; white-space: nowrap; line-height: 1.5;"><span class="nodeLabel"><p>Society — LangGraph negotiation (orchestrator.py)</p></span></div></foreignObject></g></g><g class="cluster" id="my-svg-BASE" data-look="classic"><rect style="" x="48.12890625" y="1019" width="657.37109375" height="352"/><g class="cluster-label" transform="translate(293.244140625, 1019)"><foreignObject width="167.140625" height="24"><div xmlns="http://www.w3.org/1999/xhtml" style="display: table-cell; white-space: nowrap; line-height: 1.5;"><span class="nodeLabel"><p>Baseline — single agent</p></span></div></foreignObject></g></g><g class="cluster" id="my-svg-DATA" data-look="classic"><rect style="" x="310.99609375" y="8" width="1351.053584098816" height="280"/><g class="cluster-label" transform="translate(846.679135799408, 8)"><foreignObject width="279.6875" height="24"><div xmlns="http://www.w3.org/1999/xhtml" style="display: table-cell; white-space: nowrap; line-height: 1.5;"><span class="nodeLabel"><p>Data layer — synthetic, no real records</p></span></div></foreignObject></g></g></g><g class="edgePaths"><path d="M953.714,135L953.714,139.167C953.714,143.333,953.714,151.667,953.714,159.333C953.714,167,953.714,174,953.714,177.5L953.714,181" id="my-svg-L_GEN_TBL_0" class="edge-thickness-normal edge-pattern-solid edge-thickness-normal edge-pattern-solid flowchart-link" style=";" data-edge="true" data-et="edge" data-id="L_GEN_TBL_0" data-points="W3sieCI6OTUzLjcxMzc0MDM0ODgxNTksInkiOjEzNX0seyJ4Ijo5NTMuNzEzNzQwMzQ4ODE1OSwieSI6MTYwfSx7IngiOjk1My43MTM3NDAzNDg4MTU5LCJ5IjoxODV9XQ==" data-look="classic" marker-end="url(#my-svg_flowchart-v2-pointEnd)"/><path d="M829.331,238.736L760.025,246.946C690.719,255.157,552.108,271.579,482.802,283.956C413.496,296.333,413.496,304.667,413.496,313C413.496,321.333,413.496,329.667,413.496,346.5C413.496,363.333,413.496,388.667,413.496,414C413.496,439.333,413.496,464.667,413.496,488C413.496,511.333,413.496,532.667,413.496,554C413.496,575.333,413.496,596.667,413.496,636.667C413.496,676.667,413.496,735.333,413.496,796C413.496,856.667,413.496,919.333,413.496,956.833C413.496,994.333,413.496,1006.667,413.496,1020.333C413.496,1034,413.496,1049,413.496,1056.5L413.496,1064" id="my-svg-L_TBL_B1_0" class="edge-thickness-normal edge-pattern-solid edge-thickness-normal edge-pattern-solid flowchart-link" style=";" data-edge="true" data-et="edge" data-id="L_TBL_B1_0" data-points="W3sieCI6ODI5LjMzMDkyNzg0ODgxNTksInkiOjIzOC43MzU3Mjc0NDI2Njg1OH0seyJ4Ijo0MTMuNDk2MDkzNzUsInkiOjI4OH0seyJ4Ijo0MTMuNDk2MDkzNzUsInkiOjMxM30seyJ4Ijo0MTMuNDk2MDkzNzUsInkiOjMzOH0seyJ4Ijo0MTMuNDk2MDkzNzUsInkiOjQxNH0seyJ4Ijo0MTMuNDk2MDkzNzUsInkiOjQ5MH0seyJ4Ijo0MTMuNDk2MDkzNzUsInkiOjU1NH0seyJ4Ijo0MTMuNDk2MDkzNzUsInkiOjYxOH0seyJ4Ijo0MTMuNDk2MDkzNzUsInkiOjc5NH0seyJ4Ijo0MTMuNDk2MDkzNzUsInkiOjk4Mn0seyJ4Ijo0MTMuNDk2MDkzNzUsInkiOjEwMTl9LHsieCI6NDEzLjQ5NjA5Mzc1LCJ5IjoxMDY4fV0=" data-look="classic" marker-end="url(#my-svg_flowchart-v2-pointEnd)"/><path d="M1078.097,236.932L1159.964,245.443C1241.831,253.954,1405.565,270.977,1487.432,283.655C1569.299,296.333,1569.299,304.667,1569.299,313C1569.299,321.333,1569.299,329.667,1569.299,337.333C1569.299,345,1569.299,352,1569.299,355.5L1569.299,359" id="my-svg-L_TBL_DR_0" class="edge-thickness-normal edge-pattern-solid edge-thickness-normal edge-pattern-solid flowchart-link" style=";" data-edge="true" data-et="edge" data-id="L_TBL_DR_0" data-points="W3sieCI6MTA3OC4wOTY1NTI4NDg4MTYsInkiOjIzNi45MzE2MDUxMzIzMDI3Nn0seyJ4IjoxNTY5LjI5ODU3NDQ0NzYzMTgsInkiOjI4OH0seyJ4IjoxNTY5LjI5ODU3NDQ0NzYzMTgsInkiOjMxM30seyJ4IjoxNTY5LjI5ODU3NDQ0NzYzMTgsInkiOjMzOH0seyJ4IjoxNTY5LjI5ODU3NDQ0NzYzMTgsInkiOjM2M31d" data-look="classic" marker-end="url(#my-svg_flowchart-v2-pointEnd)"/><path d="M309.968,1170L293.39,1178.167C276.812,1186.333,243.656,1202.667,227.078,1218.333C210.5,1234,210.5,1249,210.5,1256.5L210.5,1264" id="my-svg-L_B1_BOUT_0" class="edge-thickness-normal edge-pattern-solid edge-thickness-normal edge-pattern-solid flowchart-link" style=";" data-edge="true" data-et="edge" data-id="L_B1_BOUT_0" data-points="W3sieCI6MzA5Ljk2ODA4NTkzNzUsInkiOjExNzB9LHsieCI6MjEwLjUsInkiOjEyMTl9LHsieCI6MjEwLjUsInkiOjEyNjh9XQ==" data-look="classic" marker-end="url(#my-svg_flowchart-v2-pointEnd)"/><path d="M1569.299,465L1569.299,469.167C1569.299,473.333,1569.299,481.667,1569.299,489.333C1569.299,497,1569.299,504,1569.299,507.5L1569.299,511" id="my-svg-L_DR_CR_0" class="edge-thickness-normal edge-pattern-solid edge-thickness-normal edge-pattern-solid flowchart-link" style=";" data-edge="true" data-et="edge" data-id="L_DR_CR_0" data-points="W3sieCI6MTU2OS4yOTg1NzQ0NDc2MzE4LCJ5Ijo0NjV9LHsieCI6MTU2OS4yOTg1NzQ0NDc2MzE4LCJ5Ijo0OTB9LHsieCI6MTU2OS4yOTg1NzQ0NDc2MzE4LCJ5Ijo1MTV9XQ==" data-look="classic" marker-end="url(#my-svg_flowchart-v2-pointEnd)"/><path d="M1442.736,582.856L1417.046,588.713C1391.355,594.571,1339.974,606.285,1314.283,615.643C1288.593,625,1288.593,632,1288.593,635.5L1288.593,639" id="my-svg-L_CR_CD_0" class="edge-thickness-normal edge-pattern-solid edge-thickness-normal edge-pattern-solid flowchart-link" style=";" data-edge="true" data-et="edge" data-id="L_CR_CD_0" data-points="W3sieCI6MTQ0Mi43MzYwNzQ0NDc2MzE4LCJ5Ijo1ODIuODU1ODIwOTcyNzY3NH0seyJ4IjoxMjg4LjU5MjY0NjU5ODgxNiwieSI6NjE4fSx7IngiOjEyODguNTkyNjQ2NTk4ODE2LCJ5Ijo2NDN9XQ==" data-look="classic" marker-end="url(#my-svg_flowchart-v2-pointEnd)"/><path d="M1236.565,892.973L1228.765,907.81C1220.965,922.648,1205.365,952.324,1197.566,973.329C1189.766,994.333,1189.766,1006.667,1189.766,1016.333C1189.766,1026,1189.766,1033,1189.766,1036.5L1189.766,1040" id="my-svg-L_CD_NG_0" class="edge-thickness-normal edge-pattern-solid edge-thickness-normal edge-pattern-solid flowchart-link" style=";" data-edge="true" data-et="edge" data-id="L_CD_NG_0" data-points="W3sieCI6MTIzNi41NjUxOTA1NDQ1MDU0LCJ5Ijo4OTIuOTcyNTQzOTQ1Njg5NH0seyJ4IjoxMTg5Ljc2NTYyNSwieSI6OTgyfSx7IngiOjExODkuNzY1NjI1LCJ5IjoxMDE5fSx7IngiOjExODkuNzY1NjI1LCJ5IjoxMDQ0fV0=" data-look="classic" marker-end="url(#my-svg_flowchart-v2-pointEnd)"/><path d="M1189.766,1194L1189.766,1198.167C1189.766,1202.333,1189.766,1210.667,1189.766,1218.333C1189.766,1226,1189.766,1233,1189.766,1236.5L1189.766,1240" id="my-svg-L_NG_AR_0" class="edge-thickness-normal edge-pattern-solid edge-thickness-normal edge-pattern-solid flowchart-link" style=";" data-edge="true" data-et="edge" data-id="L_NG_AR_0" data-points="W3sieCI6MTE4OS43NjU2MjUsInkiOjExOTR9LHsieCI6MTE4OS43NjU2MjUsInkiOjEyMTl9LHsieCI6MTE4OS43NjU2MjUsInkiOjEyNDR9XQ==" data-look="classic" marker-end="url(#my-svg_flowchart-v2-pointEnd)"/><path d="M1308.914,1274.823L1363.855,1265.519C1418.795,1256.215,1528.676,1237.608,1583.617,1211.637C1638.557,1185.667,1638.557,1152.333,1638.557,1119C1638.557,1085.667,1638.557,1052.333,1638.557,1029.5C1638.557,1006.667,1638.557,994.333,1638.557,956.833C1638.557,919.333,1638.557,856.667,1638.557,796C1638.557,735.333,1638.557,676.667,1634.538,643.619C1630.519,610.572,1622.48,603.143,1618.46,599.429L1614.441,595.715" id="my-svg-L_AR_CR_0" class="edge-thickness-normal edge-pattern-solid edge-thickness-normal edge-pattern-solid flowchart-link" style=";" data-edge="true" data-et="edge" data-id="L_AR_CR_0" data-points="W3sieCI6MTMwOC45MTQwNjI1LCJ5IjoxMjc0LjgyMjk4MjY1ODIwNDJ9LHsieCI6MTYzOC41NTc0OTAzNDg4MTYsInkiOjEyMTl9LHsieCI6MTYzOC41NTc0OTAzNDg4MTYsInkiOjExMTl9LHsieCI6MTYzOC41NTc0OTAzNDg4MTYsInkiOjEwMTl9LHsieCI6MTYzOC41NTc0OTAzNDg4MTYsInkiOjk4Mn0seyJ4IjoxNjM4LjU1NzQ5MDM0ODgxNiwieSI6Nzk0fSx7IngiOjE2MzguNTU3NDkwMzQ4ODE2LCJ5Ijo2MTh9LHsieCI6MTYxMS41MDMyMjYzMjQ5MTU5LCJ5Ijo1OTN9XQ==" data-look="classic" marker-end="url(#my-svg_flowchart-v2-pointEnd)"/><path d="M1353.492,880.101L1366.293,897.084C1379.095,914.067,1404.697,948.034,1417.498,971.183C1430.3,994.333,1430.3,1006.667,1430.379,1025.667C1430.458,1044.667,1430.617,1070.333,1430.696,1083.167L1430.775,1096" id="my-svg-L_CD_EN_0" class="edge-thickness-normal edge-pattern-solid edge-thickness-normal edge-pattern-solid flowchart-link" style=";" data-edge="true" data-et="edge" data-id="L_CD_EN_0" data-points="W3sieCI6MTM1My40OTE5NjUzNTk1NTI4LCJ5Ijo4ODAuMTAwNjgxMjM5MjYzfSx7IngiOjE0MzAuMjk5Njc3ODQ4ODE2LCJ5Ijo5ODJ9LHsieCI6MTQzMC4yOTk2Nzc4NDg4MTYsInkiOjEwMTl9LHsieCI6MTQzMC43OTk2Nzc4NDg4MTYsInkiOjExMDB9XQ==" data-look="classic" marker-end="url(#my-svg_flowchart-v2-pointEnd)"/><path d="M1189.766,1346L1189.766,1350.167C1189.766,1354.333,1189.766,1362.667,1189.766,1373C1189.766,1383.333,1189.766,1395.667,1189.766,1445.833C1189.766,1496,1189.766,1584,1189.766,1628L1189.766,1672" id="my-svg-L_AR_REF_0" class="edge-thickness-normal edge-pattern-dotted edge-thickness-normal edge-pattern-solid flowchart-link" style=";" data-edge="true" data-et="edge" data-id="L_AR_REF_0" data-points="W3sieCI6MTE4OS43NjU2MjUsInkiOjEzNDZ9LHsieCI6MTE4OS43NjU2MjUsInkiOjEzNzF9LHsieCI6MTE4OS43NjU2MjUsInkiOjE0MDh9LHsieCI6MTE4OS43NjU2MjUsInkiOjE2NzZ9XQ==" data-look="classic" marker-end="url(#my-svg_flowchart-v2-pointEnd)"/><path d="M1430.8,1139L1430.716,1152.333C1430.633,1165.667,1430.466,1192.333,1355.871,1215.594C1281.277,1238.855,1132.254,1258.71,1057.742,1268.638L983.231,1278.566" id="my-svg-L_EN_SOUT_0" class="edge-thickness-normal edge-pattern-solid edge-thickness-normal edge-pattern-solid flowchart-link" style=";" data-edge="true" data-et="edge" data-id="L_EN_SOUT_0" data-points="W3sieCI6MTQzMC43OTk2Nzc4NDg4MTYsInkiOjExMzl9LHsieCI6MTQzMC4yOTk2Nzc4NDg4MTYsInkiOjEyMTl9LHsieCI6OTc5LjI2NTYyNSwieSI6MTI3OS4wOTM5MjQ0NTkxNzN9XQ==" data-look="classic" marker-end="url(#my-svg_flowchart-v2-pointEnd)"/><path d="M515.243,1170L531.536,1178.167C547.829,1186.333,580.414,1202.667,596.707,1223.5C613,1244.333,613,1269.667,613,1295C613,1320.333,613,1345.667,613,1364.5C613,1383.333,613,1395.667,613,1453C613,1510.333,613,1612.667,613,1715C613,1817.333,613,1919.667,686.056,1985.131C759.112,2050.596,905.224,2079.193,978.28,2093.491L1051.336,2107.789" id="my-svg-L_B1_QWEN_0" class="edge-thickness-normal edge-pattern-dotted edge-thickness-normal edge-pattern-solid flowchart-link" style=";" data-edge="true" data-et="edge" data-id="L_B1_QWEN_0" data-points="W3sieCI6NTE1LjI0MzA4NTkzNzUsInkiOjExNzB9LHsieCI6NjEzLCJ5IjoxMjE5fSx7IngiOjYxMywieSI6MTI5NX0seyJ4Ijo2MTMsInkiOjEzNzF9LHsieCI6NjEzLCJ5IjoxNDA4fSx7IngiOjYxMywieSI6MTcxNX0seyJ4Ijo2MTMsInkiOjIwMjJ9LHsieCI6MTA1NS4yNjE3MTg3NSwieSI6MjEwOC41NTcwOTU5NTI4NzM2fV0=" data-look="classic" marker-end="url(#my-svg_flowchart-v2-pointEnd)"/><path d="M1189.766,1754L1189.766,1798.667C1189.766,1843.333,1189.766,1932.667,1189.544,1982.834C1189.323,2033.001,1188.881,2044.002,1188.66,2049.503L1188.438,2055.003" id="my-svg-L_REF_QWEN_0" class="edge-thickness-normal edge-pattern-dotted edge-thickness-normal edge-pattern-solid flowchart-link" style=";" data-edge="true" data-et="edge" data-id="L_REF_QWEN_0" data-points="W3sieCI6MTE4OS43NjU2MjUsInkiOjE3NTR9LHsieCI6MTE4OS43NjU2MjUsInkiOjIwMjJ9LHsieCI6MTE4OC4yNzc3MjczOTk1NTM3LCJ5IjoyMDU5fV0=" data-look="classic" marker-end="url(#my-svg_flowchart-v2-pointEnd)"/><path d="M189.23,1322L182.796,1330.167C176.363,1338.333,163.496,1354.667,157.062,1369C150.629,1383.333,150.629,1395.667,181.336,1441.971C212.043,1488.274,273.457,1568.549,304.164,1608.686L334.871,1648.823" id="my-svg-L_BOUT_SCORE_0" class="edge-thickness-normal edge-pattern-solid edge-thickness-normal edge-pattern-solid flowchart-link" style=";" data-edge="true" data-et="edge" data-id="L_BOUT_SCORE_0" data-points="W3sieCI6MTg5LjIzMDAwNjE2Nzc2MzE1LCJ5IjoxMzIyfSx7IngiOjE1MC42Mjg5MDYyNSwieSI6MTM3MX0seyJ4IjoxNTAuNjI4OTA2MjUsInkiOjE0MDh9LHsieCI6MzM3LjMwMTY5NzM3Mzc3ODUsInkiOjE2NTJ9XQ==" data-look="classic" marker-end="url(#my-svg_flowchart-v2-pointEnd)"/><path d="M814.794,1346L811.11,1350.167C807.426,1354.333,800.059,1362.667,796.375,1373C792.691,1383.333,792.691,1395.667,739.285,1442.099C685.879,1488.531,579.067,1569.061,525.661,1609.327L472.254,1649.592" id="my-svg-L_SOUT_SCORE_0" class="edge-thickness-normal edge-pattern-solid edge-thickness-normal edge-pattern-solid flowchart-link" style=";" data-edge="true" data-et="edge" data-id="L_SOUT_SCORE_0" data-points="W3sieCI6ODE0Ljc5Mzg0MjUxNjQ0NzQsInkiOjEzNDZ9LHsieCI6NzkyLjY5MTQwNjI1LCJ5IjoxMzcxfSx7IngiOjc5Mi42OTE0MDYyNSwieSI6MTQwOH0seyJ4Ijo0NjkuMDYwNDUxNDQ1NDM5NzUsInkiOjE2NTJ9XQ==" data-look="classic" marker-end="url(#my-svg_flowchart-v2-pointEnd)"/><path d="M370.622,1778L361.018,1818.667C351.415,1859.333,332.207,1940.667,304.155,1993.141C276.102,2045.615,239.204,2069.229,220.755,2081.036L202.307,2092.844" id="my-svg-L_SCORE_BENCH_0" class="edge-thickness-normal edge-pattern-solid edge-thickness-normal edge-pattern-solid flowchart-link" style=";" data-edge="true" data-et="edge" data-id="L_SCORE_BENCH_0" data-points="W3sieCI6MzcwLjYyMjE0OTgzNzEzMzYsInkiOjE3Nzh9LHsieCI6MzEzLCJ5IjoyMDIyfSx7IngiOjE5OC45Mzc1LCJ5IjoyMDk1fV0=" data-look="classic" marker-end="url(#my-svg_flowchart-v2-pointEnd)"/><path d="M138,2173L138,2183.167C138,2193.333,138,2213.667,138,2227.333C138,2241,138,2248,138,2251.5L138,2255" id="my-svg-L_BENCH_RES_0" class="edge-thickness-normal edge-pattern-solid edge-thickness-normal edge-pattern-solid flowchart-link" style=";" data-edge="true" data-et="edge" data-id="L_BENCH_RES_0" data-points="W3sieCI6MTM4LCJ5IjoyMTczfSx7IngiOjEzOCwieSI6MjIzNH0seyJ4IjoxMzgsInkiOjIyNTl9XQ==" data-look="classic" marker-end="url(#my-svg_flowchart-v2-pointEnd)"/><path d="M904.972,1346L908.656,1350.167C912.339,1354.333,919.707,1362.667,923.39,1373C927.074,1383.333,927.074,1395.667,927.074,1453C927.074,1510.333,927.074,1612.667,927.074,1715C927.074,1817.333,927.074,1919.667,883.725,1983.158C840.375,2046.649,753.676,2071.298,710.326,2083.622L666.976,2095.947" id="my-svg-L_SOUT_UI_0" class="edge-thickness-normal edge-pattern-solid edge-thickness-normal edge-pattern-solid flowchart-link" style=";" data-edge="true" data-et="edge" data-id="L_SOUT_UI_0" data-points="W3sieCI6OTA0Ljk3MTc4MjQ4MzU1MjYsInkiOjEzNDZ9LHsieCI6OTI3LjA3NDIxODc1LCJ5IjoxMzcxfSx7IngiOjkyNy4wNzQyMTg3NSwieSI6MTQwOH0seyJ4Ijo5MjcuMDc0MjE4NzUsInkiOjE3MTV9LHsieCI6OTI3LjA3NDIxODc1LCJ5IjoyMDIyfSx7IngiOjY2My4xMjg5MDYyNSwieSI6MjA5Ny4wNDA1NTUyODAxMTl9XQ==" data-look="classic" marker-end="url(#my-svg_flowchart-v2-pointEnd)"/><path d="M214.053,1322L215.127,1330.167C216.202,1338.333,218.351,1354.667,219.425,1369C220.5,1383.333,220.5,1395.667,220.5,1453C220.5,1510.333,220.5,1612.667,220.5,1715C220.5,1817.333,220.5,1919.667,250.311,1981.513C280.121,2043.359,339.742,2064.719,369.553,2075.398L399.363,2086.078" id="my-svg-L_BOUT_UI_0" class="edge-thickness-normal edge-pattern-solid edge-thickness-normal edge-pattern-solid flowchart-link" style=";" data-edge="true" data-et="edge" data-id="L_BOUT_UI_0" data-points="W3sieCI6MjE0LjA1MjYzMTU3ODk0NzM3LCJ5IjoxMzIyfSx7IngiOjIyMC41LCJ5IjoxMzcxfSx7IngiOjIyMC41LCJ5IjoxNDA4fSx7IngiOjIyMC41LCJ5IjoxNzE1fSx7IngiOjIyMC41LCJ5IjoyMDIyfSx7IngiOjQwMy4xMjg5MDYyNSwieSI6MjA4Ny40MjcyMTEyNzUzNDl9XQ==" data-look="classic" marker-end="url(#my-svg_flowchart-v2-pointEnd)"/><path d="M413.204,1778L431.086,1818.667C448.969,1859.333,484.735,1940.667,503.689,1990.838C522.643,2041.008,524.787,2060.017,525.858,2069.521L526.93,2079.025" id="my-svg-L_SCORE_UI_0" class="edge-thickness-normal edge-pattern-solid edge-thickness-normal edge-pattern-solid flowchart-link" style=";" data-edge="true" data-et="edge" data-id="L_SCORE_UI_0" data-points="W3sieCI6NDEzLjIwMzU4MzA2MTg4OTMsInkiOjE3Nzh9LHsieCI6NTIwLjUsInkiOjIwMjJ9LHsieCI6NTI3LjM3ODI0MzU4MjU4OTMsInkiOjIwODN9XQ==" data-look="classic" marker-end="url(#my-svg_flowchart-v2-pointEnd)"/><path d="M1569.452,593L1569.468,597.167C1569.484,601.333,1569.517,609.667,1569.533,643.167C1569.55,676.667,1569.55,735.333,1569.55,796C1569.55,856.667,1569.55,919.333,1569.55,956.833C1569.55,994.333,1569.55,1006.667,1569.55,1029.5C1569.55,1052.333,1569.55,1085.667,1569.55,1119C1569.55,1152.333,1569.55,1185.667,1569.55,1215C1569.55,1244.333,1569.55,1269.667,1569.55,1295C1569.55,1320.333,1569.55,1345.667,1569.55,1364.5C1569.55,1383.333,1569.55,1395.667,1569.55,1407.333C1569.55,1419,1569.55,1430,1569.55,1435.5L1569.55,1441" id="my-svg-L_CR_ADV_0" class="edge-thickness-normal edge-pattern-dotted edge-thickness-normal edge-pattern-solid flowchart-link" style=";" data-edge="true" data-et="edge" data-id="L_CR_ADV_0" data-points="W3sieCI6MTU2OS40NTE1OTA1ODI3Mjg0LCJ5Ijo1OTN9LHsieCI6MTU2OS41NDk2Nzc4NDg4MTYsInkiOjYxOH0seyJ4IjoxNTY5LjU0OTY3Nzg0ODgxNiwieSI6Nzk0fSx7IngiOjE1NjkuNTQ5Njc3ODQ4ODE2LCJ5Ijo5ODJ9LHsieCI6MTU2OS41NDk2Nzc4NDg4MTYsInkiOjEwMTl9LHsieCI6MTU2OS41NDk2Nzc4NDg4MTYsInkiOjExMTl9LHsieCI6MTU2OS41NDk2Nzc4NDg4MTYsInkiOjEyMTl9LHsieCI6MTU2OS41NDk2Nzc4NDg4MTYsInkiOjEyOTV9LHsieCI6MTU2OS41NDk2Nzc4NDg4MTYsInkiOjEzNzF9LHsieCI6MTU2OS41NDk2Nzc4NDg4MTYsInkiOjE0MDh9LHsieCI6MTU2OS41NDk2Nzc4NDg4MTYsInkiOjE0NDV9XQ==" data-look="classic" marker-end="url(#my-svg_flowchart-v2-pointEnd)"/><path d="M1569.55,1985L1569.55,1991.167C1569.55,1997.333,1569.55,2009.667,1527.808,2027.999C1486.067,2046.331,1402.585,2070.662,1360.843,2082.827L1319.102,2094.993" id="my-svg-L_ADV_QWEN_0" class="edge-thickness-normal edge-pattern-dotted edge-thickness-normal edge-pattern-solid flowchart-link" style=";" data-edge="true" data-et="edge" data-id="L_ADV_QWEN_0" data-points="W3sieCI6MTU2OS41NDk2Nzc4NDg4MTYsInkiOjE5ODV9LHsieCI6MTU2OS41NDk2Nzc4NDg4MTYsInkiOjIwMjJ9LHsieCI6MTMxNS4yNjE3MTg3NSwieSI6MjA5Ni4xMTE3NDU0ODg2MDZ9XQ==" data-look="classic" marker-end="url(#my-svg_flowchart-v2-pointEnd)"/></g><g class="edgeLabels"><g class="edgeLabel"><g class="label" data-id="L_GEN_TBL_0" transform="translate(0, 0)"><foreignObject width="0" height="0"><div xmlns="http://www.w3.org/1999/xhtml" class="labelBkg" style="display: table-cell; white-space: nowrap; line-height: 1.5; max-width: 200px; text-align: center;"><span class="edgeLabel"></span></div></foreignObject></g></g><g class="edgeLabel"><g class="label" data-id="L_TBL_B1_0" transform="translate(0, 0)"><foreignObject width="0" height="0"><div xmlns="http://www.w3.org/1999/xhtml" class="labelBkg" style="display: table-cell; white-space: nowrap; line-height: 1.5; max-width: 200px; text-align: center;"><span class="edgeLabel"></span></div></foreignObject></g></g><g class="edgeLabel"><g class="label" data-id="L_TBL_DR_0" transform="translate(0, 0)"><foreignObject width="0" height="0"><div xmlns="http://www.w3.org/1999/xhtml" class="labelBkg" style="display: table-cell; white-space: nowrap; line-height: 1.5; max-width: 200px; text-align: center;"><span class="edgeLabel"></span></div></foreignObject></g></g><g class="edgeLabel"><g class="label" data-id="L_B1_BOUT_0" transform="translate(0, 0)"><foreignObject width="0" height="0"><div xmlns="http://www.w3.org/1999/xhtml" class="labelBkg" style="display: table-cell; white-space: nowrap; line-height: 1.5; max-width: 200px; text-align: center;"><span class="edgeLabel"></span></div></foreignObject></g></g><g class="edgeLabel"><g class="label" data-id="L_DR_CR_0" transform="translate(0, 0)"><foreignObject width="0" height="0"><div xmlns="http://www.w3.org/1999/xhtml" class="labelBkg" style="display: table-cell; white-space: nowrap; line-height: 1.5; max-width: 200px; text-align: center;"><span class="edgeLabel"></span></div></foreignObject></g></g><g class="edgeLabel"><g class="label" data-id="L_CR_CD_0" transform="translate(0, 0)"><foreignObject width="0" height="0"><div xmlns="http://www.w3.org/1999/xhtml" class="labelBkg" style="display: table-cell; white-space: nowrap; line-height: 1.5; max-width: 200px; text-align: center;"><span class="edgeLabel"></span></div></foreignObject></g></g><g class="edgeLabel" transform="translate(1189.765625, 982)"><g class="label" data-id="L_CD_NG_0" transform="translate(-11.546875, -12)"><foreignObject width="23.09375" height="24"><div xmlns="http://www.w3.org/1999/xhtml" class="labelBkg" style="display: table-cell; white-space: nowrap; line-height: 1.5; max-width: 200px; text-align: center;"><span class="edgeLabel"><p>yes</p></span></div></foreignObject></g></g><g class="edgeLabel"><g class="label" data-id="L_NG_AR_0" transform="translate(0, 0)"><foreignObject width="0" height="0"><div xmlns="http://www.w3.org/1999/xhtml" class="labelBkg" style="display: table-cell; white-space: nowrap; line-height: 1.5; max-width: 200px; text-align: center;"><span class="edgeLabel"></span></div></foreignObject></g></g><g class="edgeLabel"><g class="label" data-id="L_AR_CR_0" transform="translate(0, 0)"><foreignObject width="0" height="0"><div xmlns="http://www.w3.org/1999/xhtml" class="labelBkg" style="display: table-cell; white-space: nowrap; line-height: 1.5; max-width: 200px; text-align: center;"><span class="edgeLabel"></span></div></foreignObject></g></g><g class="edgeLabel" transform="translate(1430.299677848816, 982)"><g class="label" data-id="L_CD_EN_0" transform="translate(-72.5, -12)"><foreignObject width="145" height="24"><div xmlns="http://www.w3.org/1999/xhtml" class="labelBkg" style="display: table-cell; white-space: nowrap; line-height: 1.5; max-width: 200px; text-align: center;"><span class="edgeLabel"><p>no · stalled / no hot</p></span></div></foreignObject></g></g><g class="edgeLabel" transform="translate(1189.765625, 1408)"><g class="label" data-id="L_AR_REF_0" transform="translate(-35.3125, -12)"><foreignObject width="70.625" height="24"><div xmlns="http://www.w3.org/1999/xhtml" class="labelBkg" style="display: table-cell; white-space: nowrap; line-height: 1.5; max-width: 200px; text-align: center;"><span class="edgeLabel"><p>arbitrates</p></span></div></foreignObject></g></g><g class="edgeLabel"><g class="label" data-id="L_EN_SOUT_0" transform="translate(0, 0)"><foreignObject width="0" height="0"><div xmlns="http://www.w3.org/1999/xhtml" class="labelBkg" style="display: table-cell; white-space: nowrap; line-height: 1.5; max-width: 200px; text-align: center;"><span class="edgeLabel"></span></div></foreignObject></g></g><g class="edgeLabel" transform="translate(613, 1408)"><g class="label" data-id="L_B1_QWEN_0" transform="translate(-13.78125, -12)"><foreignObject width="27.5625" height="24"><div xmlns="http://www.w3.org/1999/xhtml" class="labelBkg" style="display: table-cell; white-space: nowrap; line-height: 1.5; max-width: 200px; text-align: center;"><span class="edgeLabel"><p>LLM</p></span></div></foreignObject></g></g><g class="edgeLabel" transform="translate(1189.765625, 2022)"><g class="label" data-id="L_REF_QWEN_0" transform="translate(-13.78125, -12)"><foreignObject width="27.5625" height="24"><div xmlns="http://www.w3.org/1999/xhtml" class="labelBkg" style="display: table-cell; white-space: nowrap; line-height: 1.5; max-width: 200px; text-align: center;"><span class="edgeLabel"><p>LLM</p></span></div></foreignObject></g></g><g class="edgeLabel"><g class="label" data-id="L_BOUT_SCORE_0" transform="translate(0, 0)"><foreignObject width="0" height="0"><div xmlns="http://www.w3.org/1999/xhtml" class="labelBkg" style="display: table-cell; white-space: nowrap; line-height: 1.5; max-width: 200px; text-align: center;"><span class="edgeLabel"></span></div></foreignObject></g></g><g class="edgeLabel"><g class="label" data-id="L_SOUT_SCORE_0" transform="translate(0, 0)"><foreignObject width="0" height="0"><div xmlns="http://www.w3.org/1999/xhtml" class="labelBkg" style="display: table-cell; white-space: nowrap; line-height: 1.5; max-width: 200px; text-align: center;"><span class="edgeLabel"></span></div></foreignObject></g></g><g class="edgeLabel"><g class="label" data-id="L_SCORE_BENCH_0" transform="translate(0, 0)"><foreignObject width="0" height="0"><div xmlns="http://www.w3.org/1999/xhtml" class="labelBkg" style="display: table-cell; white-space: nowrap; line-height: 1.5; max-width: 200px; text-align: center;"><span class="edgeLabel"></span></div></foreignObject></g></g><g class="edgeLabel"><g class="label" data-id="L_BENCH_RES_0" transform="translate(0, 0)"><foreignObject width="0" height="0"><div xmlns="http://www.w3.org/1999/xhtml" class="labelBkg" style="display: table-cell; white-space: nowrap; line-height: 1.5; max-width: 200px; text-align: center;"><span class="edgeLabel"></span></div></foreignObject></g></g><g class="edgeLabel"><g class="label" data-id="L_SOUT_UI_0" transform="translate(0, 0)"><foreignObject width="0" height="0"><div xmlns="http://www.w3.org/1999/xhtml" class="labelBkg" style="display: table-cell; white-space: nowrap; line-height: 1.5; max-width: 200px; text-align: center;"><span class="edgeLabel"></span></div></foreignObject></g></g><g class="edgeLabel"><g class="label" data-id="L_BOUT_UI_0" transform="translate(0, 0)"><foreignObject width="0" height="0"><div xmlns="http://www.w3.org/1999/xhtml" class="labelBkg" style="display: table-cell; white-space: nowrap; line-height: 1.5; max-width: 200px; text-align: center;"><span class="edgeLabel"></span></div></foreignObject></g></g><g class="edgeLabel"><g class="label" data-id="L_SCORE_UI_0" transform="translate(0, 0)"><foreignObject width="0" height="0"><div xmlns="http://www.w3.org/1999/xhtml" class="labelBkg" style="display: table-cell; white-space: nowrap; line-height: 1.5; max-width: 200px; text-align: center;"><span class="edgeLabel"></span></div></foreignObject></g></g><g class="edgeLabel" transform="translate(1569.549677848816, 1119)"><g class="label" data-id="L_CR_ADV_0" transform="translate(-29.0078125, -12)"><foreignObject width="58.015625" height="24"><div xmlns="http://www.w3.org/1999/xhtml" class="labelBkg" style="display: table-cell; white-space: nowrap; line-height: 1.5; max-width: 200px; text-align: center;"><span class="edgeLabel"><p>consults</p></span></div></foreignObject></g></g><g class="edgeLabel" transform="translate(1569.549677848816, 2022)"><g class="label" data-id="L_ADV_QWEN_0" transform="translate(-13.78125, -12)"><foreignObject width="27.5625" height="24"><div xmlns="http://www.w3.org/1999/xhtml" class="labelBkg" style="display: table-cell; white-space: nowrap; line-height: 1.5; max-width: 200px; text-align: center;"><span class="edgeLabel"><p>LLM</p></span></div></foreignObject></g></g></g><g class="nodes"><g class="root" transform="translate(1439.534052848816, 1437)"><g class="clusters"><g class="cluster" id="my-svg-ADV" data-look="classic"><rect style="" x="-78.65625" y="8" width="417.34375" height="540"/><g class="cluster-label" transform="translate(-74.65625, 8)"><foreignObject width="409.34375" height="24"><div xmlns="http://www.w3.org/1999/xhtml" style="display: table-cell; white-space: nowrap; line-height: 1.5;"><span class="nodeLabel"><p>Advocates — distinct by role + tool + tier · qwen3.6-flash</p></span></div></foreignObject></g></g></g><g class="edgePaths"/><g class="edgeLabels"/><g class="nodes"><g class="node default" id="my-svg-flowchart-A1-29" data-look="classic" transform="translate(130.015625, 70)"><rect class="basic label-container" style="" x="-56.28125" y="-27" width="112.5625" height="54"/><g class="label" style="" transform="translate(-26.28125, -12)"><rect/><foreignObject width="52.5625" height="24"><div xmlns="http://www.w3.org/1999/xhtml" style="display: table-cell; white-space: nowrap; line-height: 1.5; max-width: 200px; text-align: center;"><span class="nodeLabel"><p>Priority</p></span></div></foreignObject></g></g><g class="node default" id="my-svg-flowchart-A2-30" data-look="classic" transform="translate(130.015625, 174)"><rect class="basic label-container" style="" x="-58.0625" y="-27" width="116.125" height="54"/><g class="label" style="" transform="translate(-28.0625, -12)"><rect/><foreignObject width="56.125" height="24"><div xmlns="http://www.w3.org/1999/xhtml" style="display: table-cell; white-space: nowrap; line-height: 1.5; max-width: 200px; text-align: center;"><span class="nodeLabel"><p>Window</p></span></div></foreignObject></g></g><g class="node default" id="my-svg-flowchart-A3-31" data-look="classic" transform="translate(130.015625, 278)"><rect class="basic label-container" style="" x="-67.046875" y="-27" width="134.09375" height="54"/><g class="label" style="" transform="translate(-37.046875, -12)"><rect/><foreignObject width="74.09375" height="24"><div xmlns="http://www.w3.org/1999/xhtml" style="display: table-cell; white-space: nowrap; line-height: 1.5; max-width: 200px; text-align: center;"><span class="nodeLabel"><p>Continuity</p></span></div></foreignObject></g></g><g class="node default" id="my-svg-flowchart-A4-32" data-look="classic" transform="translate(130.015625, 382)"><rect class="basic label-container" style="" x="-84.515625" y="-27" width="169.03125" height="54"/><g class="label" style="" transform="translate(-54.515625, -12)"><rect/><foreignObject width="109.03125" height="24"><div xmlns="http://www.w3.org/1999/xhtml" style="display: table-cell; white-space: nowrap; line-height: 1.5; max-width: 200px; text-align: center;"><span class="nodeLabel"><p>Capacity · veto</p></span></div></foreignObject></g></g><g class="node default" id="my-svg-flowchart-A5-33" data-look="classic" transform="translate(130.015625, 486)"><rect class="basic label-container" style="" x="-69.046875" y="-27" width="138.09375" height="54"/><g class="label" style="" transform="translate(-39.046875, -12)"><rect/><foreignObject width="78.09375" height="24"><div xmlns="http://www.w3.org/1999/xhtml" style="display: table-cell; white-space: nowrap; line-height: 1.5; max-width: 200px; text-align: center;"><span class="nodeLabel"><p>Preference</p></span></div></foreignObject></g></g></g></g><g class="node default" id="my-svg-flowchart-GEN-0" data-look="classic" transform="translate(953.7137403488159, 84)"><rect class="basic label-container" style="" x="-130" y="-51" width="260" height="102"/><g class="label" style="" transform="translate(-100, -36)"><rect/><foreignObject width="200" height="72"><div xmlns="http://www.w3.org/1999/xhtml" style="display: table; white-space: break-spaces; line-height: 1.5; max-width: 200px; text-align: center; width: 200px;"><span class="nodeLabel"><p>generator.py<br />seeded · --ratio scarcity knob</p></span></div></foreignObject></g></g><g class="node default" id="my-svg-flowchart-TBL-1" data-look="classic" transform="translate(953.7137403488159, 224)"><rect class="basic label-container" style="" x="-124.3828125" y="-39" width="248.765625" height="78"/><g class="label" style="" transform="translate(-94.3828125, -24)"><rect/><foreignObject width="188.765625" height="48"><div xmlns="http://www.w3.org/1999/xhtml" style="display: table-cell; white-space: nowrap; line-height: 1.5; max-width: 200px; text-align: center;"><span class="nodeLabel"><p>patients · clinicians · slots<br />encounters · meta (t0)</p></span></div></foreignObject></g></g><g class="node default" id="my-svg-flowchart-B1-5" data-look="classic" transform="translate(413.49609375, 1119)"><rect class="basic label-container" style="" x="-130" y="-51" width="260" height="102"/><g class="label" style="" transform="translate(-100, -36)"><rect/><foreignObject width="200" height="72"><div xmlns="http://www.w3.org/1999/xhtml" style="display: table; white-space: break-spaces; line-height: 1.5; max-width: 200px; text-align: center; width: 200px;"><span class="nodeLabel"><p>baseline.py<br />one Qwen pass · acuity-first greedy (offline)</p></span></div></foreignObject></g></g><g class="node default" id="my-svg-flowchart-DR-7" data-look="classic" transform="translate(1569.2985744476318, 414)"><rect class="basic label-container" style="" x="-130" y="-51" width="260" height="102"/><g class="label" style="" transform="translate(-100, -36)"><rect/><foreignObject width="200" height="72"><div xmlns="http://www.w3.org/1999/xhtml" style="display: table; white-space: break-spaces; line-height: 1.5; max-width: 200px; text-align: center; width: 200px;"><span class="nodeLabel"><p>node_draft<br />acuity-first skeleton (or warm seed)</p></span></div></foreignObject></g></g><g class="node default" id="my-svg-flowchart-BOUT-10" data-look="classic" transform="translate(210.5, 1295)"><rect class="basic label-container" style="" x="-124.7421875" y="-27" width="249.484375" height="54"/><g class="label" style="" transform="translate(-94.7421875, -12)"><rect/><foreignObject width="189.484375" height="24"><div xmlns="http://www.w3.org/1999/xhtml" style="display: table-cell; white-space: nowrap; line-height: 1.5; max-width: 200px; text-align: center;"><span class="nodeLabel"><p>assignments_baseline.json</p></span></div></foreignObject></g></g><g class="node default" id="my-svg-flowchart-CR-12" data-look="classic" transform="translate(1569.2985744476318, 554)"><rect class="basic label-container" style="" x="-126.5625" y="-39" width="253.125" height="78"/><g class="label" style="" transform="translate(-96.5625, -24)"><rect/><foreignObject width="193.125" height="48"><div xmlns="http://www.w3.org/1999/xhtml" style="display: table-cell; white-space: nowrap; line-height: 1.5; max-width: 200px; text-align: center;"><span class="nodeLabel"><p>node_critique<br />5 advocates file objections</p></span></div></foreignObject></g></g><g class="node default" id="my-svg-flowchart-CD-13" data-look="classic" transform="translate(1288.592646598816, 794)"><polygon points="151,0 302,-151 151,-302 0,-151" class="label-container" transform="translate(-150.5, 151)"/><g class="label" style="" transform="translate(-100, -36)"><rect/><foreignObject width="200" height="72"><div xmlns="http://www.w3.org/1999/xhtml" style="display: table; white-space: break-spaces; line-height: 1.5; max-width: 200px; text-align: center; width: 200px;"><span class="nodeLabel"><p>should_continue<br />hot objection &amp; round &lt; cap?</p></span></div></foreignObject></g></g><g class="node default" id="my-svg-flowchart-NG-14" data-look="classic" transform="translate(1189.765625, 1119)"><rect class="basic label-container" style="" x="-130" y="-75" width="260" height="150"/><g class="label" style="" transform="translate(-100, -60)"><rect/><foreignObject width="200" height="120"><div xmlns="http://www.w3.org/1999/xhtml" style="display: table; white-space: break-spaces; line-height: 1.5; max-width: 200px; text-align: center; width: 200px;"><span class="nodeLabel"><p>node_negotiate<br />advocate proposes · FOR/AGAINST<br />coalitions · referee brokers (rank)</p></span></div></foreignObject></g></g><g class="node default" id="my-svg-flowchart-AR-15" data-look="classic" transform="translate(1189.765625, 1295)"><rect class="basic label-container" style="" x="-119.1484375" y="-51" width="238.296875" height="102"/><g class="label" style="" transform="translate(-89.1484375, -36)"><rect/><foreignObject width="178.296875" height="72"><div xmlns="http://www.w3.org/1999/xhtml" style="display: table-cell; white-space: nowrap; line-height: 1.5; max-width: 200px; text-align: center;"><span class="nodeLabel"><p>node_arbitrate<br />apply brokered move<br />+ ledger line + transcript</p></span></div></foreignObject></g></g><g class="node default" id="my-svg-flowchart-EN-16" data-look="classic" transform="translate(1430.299677848816, 1119)"><g class="basic label-container outer-path"><path d="M-7.171875 -19.5 C-1.8411908529962124 -19.5, 3.489493294007575 -19.5, 7.171875 -19.5 C7.171875 -19.5, 7.171874999999999 -19.5, 7.171874999999999 -19.5 C7.507490157625158 -19.489237475130235, 7.843105315250316 -19.478474950260473, 8.4212442896239 -19.45993515863156 C8.73114019479331 -19.43003987336422, 9.041036099962723 -19.400144588096882, 9.665479652847864 -19.3399052695533 C10.02820733966365 -19.281262270144147, 10.390935026479438 -19.222619270734995, 10.899468259676757 -19.140403561325776 C11.161196674596638 -19.080665758557835, 11.422925089516522 -19.020927955789894, 12.11813938623539 -18.862249829261074 C12.388581432554897 -18.781984049492713, 12.659023478874403 -18.701718269724356, 13.316485251460602 -18.50658706670804 C13.746935842570686 -18.34817727013788, 14.17738643368077 -18.189767473567727, 14.489581595147794 -18.074876768247425 C14.754960946957423 -17.957401201400074, 15.020340298767053 -17.839925634552724, 15.632607912792382 -17.568892924097174 C16.033218642410223 -17.359894563058965, 16.433829372028065 -17.150896202020757, 16.740867264076783 -16.990714730406097 C17.089241031812026 -16.779528505133488, 17.437614799547266 -16.568342279860882, 17.809805573605697 -16.342718045390892 C18.055500452253327 -16.171331934006183, 18.301195330900956 -15.99994582262147, 18.835030344578712 -15.627565626425154 C19.082756007498958 -15.430011002503006, 19.330481670419204 -15.232456378580856, 19.81232870850187 -14.848196188198123 C20.05440867642553 -14.628345566414819, 20.296488644349193 -14.408494944631514, 20.737684736767985 -14.007812326905688 C21.052153487032076 -13.683097523893462, 21.366622237296163 -13.358382720881236, 21.607295942968648 -13.10986736009568 C21.90973762540748 -12.754602150483777, 22.212179307846316 -12.399336940871873, 22.417588908126582 -12.158051136245305 C22.704976661955655 -11.772977727677324, 22.99236441578473 -11.387904319109342, 23.165233964640635 -11.156274872382312 C23.361830493570906 -10.854249810385602, 23.55842702250118 -10.55222474838889, 23.847158878604247 -10.108655082055241 C24.03969262756187 -9.766791914624811, 24.232226376519492 -9.42492874719438, 24.4605614742735 -9.019496659696287 C24.6519778389362 -8.622016482820097, 24.8433942035989 -8.224536305943907, 25.00292114880834 -7.893275190886684 C25.18272580278629 -7.449154219274652, 25.36253045676424 -7.00503324766262, 25.472009229970325 -6.734618561215508 C25.606670563165498 -6.329040081001392, 25.741331896360673 -5.9234616007872765, 25.86589813421488 -5.548287939305138 C25.968527784706126 -5.156916602010137, 26.071157435197367 -4.7655452647151355, 26.18296928754556 -4.339158212148133 C26.253896850931923 -3.9749601647049833, 26.32482441431829 -3.6107621172618334, 26.421919776581777 -3.1121979531509023 C26.481907015209384 -2.64694877617532, 26.541894253836986 -2.181699599199738, 26.581767702509367 -1.872449005199798 C26.606669873240687 -1.484577595389081, 26.631572043972003 -1.0967061855783642, 26.661856215913414 -0.6250057626472757 C26.661856215913414 -0.29242335908762485, 26.661856215913414 0.040159044472026006, 26.661856215913414 0.625005762647271 C26.630256967612564 1.1171895613871463, 26.598657719311717 1.6093733601270213, 26.581767702509367 1.8724490051997846 C26.522749308425592 2.3301840152134132, 26.46373091434182 2.7879190252270423, 26.421919776581777 3.1121979531508885 C26.35882639845985 3.436169115016802, 26.295733020337924 3.7601402768827152, 26.18296928754556 4.339158212148129 C26.07703524773566 4.743130618046559, 25.97110120792576 5.1471030239449895, 25.865898134214884 5.548287939305125 C25.723681295926 5.976622397055241, 25.581464457637114 6.4049568548053575, 25.47200922997033 6.734618561215495 C25.37743937231212 6.968207938015079, 25.282869514653918 7.201797314814664, 25.002921148808344 7.893275190886679 C24.888209473901696 8.131476438266986, 24.773497798995045 8.369677685647295, 24.460561474273504 9.019496659696284 C24.273050216198374 9.352441885982497, 24.085538958123244 9.68538711226871, 23.84715887860425 10.108655082055236 C23.70275943822912 10.330491399150427, 23.558359997853987 10.552327716245617, 23.16523396464064 11.156274872382301 C22.924372560299282 11.479007211274379, 22.683511155957923 11.801739550166456, 22.417588908126582 12.158051136245302 C22.20439672496737 12.40847880556299, 21.99120454180816 12.658906474880675, 21.60729594296866 13.10986736009567 C21.418180858691876 13.305144211248622, 21.229065774415094 13.500421062401575, 20.73768473676799 14.007812326905684 C20.37782792842858 14.334624758950138, 20.01797112008917 14.66143719099459, 19.812328708501887 14.848196188198111 C19.597346719750735 15.01963860331617, 19.382364730999583 15.191081018434232, 18.835030344578715 15.627565626425152 C18.60570863049364 15.787530526993896, 18.376386916408567 15.94749542756264, 17.809805573605708 16.34271804539089 C17.404376584750263 16.588491481000258, 16.99894759589482 16.834264916609627, 16.740867264076787 16.990714730406093 C16.48742499880391 17.122935397861433, 16.233982733531032 17.255156065316775, 15.632607912792386 17.56889292409717 C15.199226749199907 17.760737909424112, 14.765845585607428 17.95258289475105, 14.489581595147804 18.07487676824742 C14.125369196479582 18.208910297699834, 13.76115679781136 18.342943827152244, 13.316485251460616 18.506587066708033 C12.983517263778639 18.605410217667412, 12.650549276096662 18.70423336862679, 12.118139386235413 18.86224982926107 C11.823866808742626 18.92941562476577, 11.529594231249838 18.996581420270466, 10.899468259676766 19.140403561325773 C10.5222560747556 19.201388302059645, 10.145043889834433 19.262373042793513, 9.665479652847878 19.3399052695533 C9.306981036598447 19.374489199905216, 8.948482420349015 19.40907313025713, 8.4212442896239 19.45993515863156 C8.029460133121729 19.472498913968984, 7.637675976619558 19.485062669306412, 7.1718750000000036 19.5 C7.171875000000003 19.5, 7.171875000000001 19.5, 7.171875 19.5 C2.5817735854316313 19.5, -2.0083278291367375 19.5, -7.1718749999999964 19.5 C-7.56022572563705 19.48754634810765, -7.948576451274104 19.475092696215302, -8.421244289623893 19.45993515863156 C-8.911591859973713 19.412631918249147, -9.401939430323534 19.36532867786673, -9.665479652847871 19.3399052695533 C-10.043145072535312 19.278847253337304, -10.420810492222753 19.21778923712131, -10.899468259676759 19.140403561325773 C-11.23606877027106 19.06357669130623, -11.57266928086536 18.98674982128669, -12.118139386235388 18.862249829261074 C-12.39322711342602 18.780605235795843, -12.66831484061665 18.698960642330608, -13.316485251460593 18.506587066708043 C-13.65643796234302 18.3814813266149, -13.996390673225447 18.256375586521756, -14.489581595147797 18.074876768247425 C-14.913530213104368 17.887207291066975, -15.337478831060938 17.69953781388653, -15.63260791279238 17.568892924097174 C-16.003796379756903 17.375244138639342, -16.37498484672142 17.181595353181514, -16.74086726407678 16.990714730406097 C-17.041853013118256 16.80825540054856, -17.34283876215973 16.625796070691024, -17.809805573605686 16.3427180453909 C-18.107441182345706 16.135100329171703, -18.405076791085726 15.927482612952508, -18.835030344578712 15.627565626425156 C-19.134297516512454 15.3889080206419, -19.4335646884462 15.150250414858643, -19.81232870850187 14.848196188198125 C-20.104082845268273 14.583232800578328, -20.395836982034673 14.31826941295853, -20.737684736767974 14.007812326905697 C-21.041578198043467 13.694017378021572, -21.34547165931896 13.380222429137447, -21.607295942968655 13.109867360095677 C-21.825675185808812 12.853346675324694, -22.044054428648966 12.596825990553713, -22.41758890812658 12.158051136245307 C-22.641867117331092 11.857538768076445, -22.86614532653561 11.557026399907585, -23.165233964640635 11.156274872382316 C-23.40751938635802 10.784059401879036, -23.649804808075405 10.411843931375758, -23.847158878604244 10.108655082055249 C-23.971637742066754 9.88763025512581, -24.096116605529268 9.666605428196373, -24.4605614742735 9.019496659696289 C-24.580091535171434 8.77128993070814, -24.699621596069363 8.523083201719992, -25.00292114880834 7.893275190886686 C-25.107998932617594 7.633731033337081, -25.21307671642685 7.374186875787475, -25.472009229970325 6.73461856121551 C-25.57257782991629 6.431721961608635, -25.673146429862257 6.128825362001759, -25.86589813421488 5.5482879393051325 C-25.972405760870693 5.142128198169129, -26.078913387526505 4.735968457033126, -26.182969287545557 4.339158212148136 C-26.25969572440208 3.9451841750280674, -26.336422161258604 3.5512101379079986, -26.421919776581777 3.112197953150904 C-26.464270891010983 2.783731072811454, -26.506622005440192 2.4552641924720042, -26.581767702509364 1.872449005199809 C-26.603486568766552 1.5341601320907707, -26.625205435023744 1.1958712589817324, -26.661856215913414 0.6250057626472781 C-26.661856215913414 0.13599740351187634, -26.661856215913414 -0.35301095562352547, -26.661856215913414 -0.6250057626472687 C-26.645518676806127 -0.8794761216675009, -26.629181137698836 -1.133946480687733, -26.581767702509367 -1.8724490051997822 C-26.520471362847662 -2.3478513112846153, -26.459175023185956 -2.8232536173694482, -26.421919776581777 -3.112197953150895 C-26.37148121226861 -3.371189320704681, -26.321042647955437 -3.6301806882584664, -26.18296928754556 -4.339158212148126 C-26.063613578993444 -4.794313257948658, -25.944257870441326 -5.24946830374919, -25.865898134214884 -5.548287939305123 C-25.714793089672774 -6.003392258146599, -25.563688045130668 -6.458496576988075, -25.472009229970332 -6.734618561215485 C-25.348141741829963 -7.04057365173716, -25.224274253689597 -7.346528742258836, -25.002921148808344 -7.893275190886676 C-24.795224419441254 -8.324561893415533, -24.587527690074165 -8.75584859594439, -24.460561474273504 -9.019496659696282 C-24.28399935659212 -9.333000578492712, -24.107437238910734 -9.646504497289143, -23.847158878604247 -10.108655082055243 C-23.634834232516923 -10.434842755596003, -23.422509586429598 -10.761030429136763, -23.16523396464064 -11.156274872382308 C-22.96348546996558 -11.426599475580922, -22.761736975290518 -11.696924078779535, -22.417588908126586 -12.158051136245302 C-22.13430464204113 -12.490812954520658, -21.851020375955677 -12.823574772796015, -21.607295942968662 -13.10986736009567 C-21.31924276766798 -13.40730591319914, -21.031189592367294 -13.70474446630261, -20.737684736767996 -14.007812326905677 C-20.432420593580392 -14.285045144902027, -20.12715645039279 -14.562277962898376, -19.812328708501887 -14.848196188198107 C-19.600240933599338 -15.017330544790173, -19.388153158696785 -15.18646490138224, -18.83503034457872 -15.627565626425149 C-18.453209420850584 -15.893907374056505, -18.071388497122445 -16.160249121687862, -17.80980557360571 -16.342718045390885 C-17.449127311633397 -16.56136332737924, -17.088449049661083 -16.78000860936759, -16.74086726407679 -16.99071473040609 C-16.473232370450436 -17.13033968298263, -16.20559747682408 -17.269964635559166, -15.63260791279239 -17.56889292409717 C-15.355399679504801 -17.691604785883513, -15.078191446217213 -17.814316647669855, -14.489581595147806 -18.07487676824742 C-14.149622320541642 -18.199984923851574, -13.809663045935478 -18.325093079455726, -13.316485251460618 -18.506587066708033 C-12.931501202567032 -18.62084831159714, -12.546517153673449 -18.735109556486243, -12.118139386235413 -18.862249829261067 C-11.798717436369268 -18.935155804894993, -11.479295486503123 -19.00806178052892, -10.899468259676768 -19.140403561325773 C-10.467935635400416 -19.210170409433292, -10.036403011124062 -19.27993725754081, -9.66547965284788 -19.3399052695533 C-9.352819231252472 -19.370067244395436, -9.040158809657063 -19.400229219237573, -8.421244289623903 -19.45993515863156 C-8.089264072948009 -19.470581118020064, -7.757283856272115 -19.48122707740857, -7.171875000000006 -19.5 C-7.171875000000005 -19.5, -7.1718750000000036 -19.5, -7.171875 -19.5" stroke="none" stroke-width="0" fill="#ECECFF" style=""/><path d="M-7.171875 -19.5 C-1.9499150840833828 -19.5, 3.2720448318332345 -19.5, 7.171875 -19.5 M-7.171875 -19.5 C-3.7086235381004578 -19.5, -0.2453720762009155 -19.5, 7.171875 -19.5 M7.171875 -19.5 C7.171875 -19.5, 7.171874999999999 -19.5, 7.171874999999999 -19.5 M7.171875 -19.5 C7.171875 -19.5, 7.171874999999999 -19.5, 7.171874999999999 -19.5 M7.171874999999999 -19.5 C7.578390162717465 -19.486963849965413, 7.984905325434931 -19.47392769993083, 8.4212442896239 -19.45993515863156 M7.171874999999999 -19.5 C7.622193169602885 -19.48555917279198, 8.07251133920577 -19.47111834558396, 8.4212442896239 -19.45993515863156 M8.4212442896239 -19.45993515863156 C8.839681802233066 -19.41956899503489, 9.258119314842233 -19.379202831438217, 9.665479652847864 -19.3399052695533 M8.4212442896239 -19.45993515863156 C8.683911094428856 -19.434596007875076, 8.946577899233812 -19.409256857118592, 9.665479652847864 -19.3399052695533 M9.665479652847864 -19.3399052695533 C9.976122293294186 -19.289682976515593, 10.286764933740505 -19.23946068347789, 10.899468259676757 -19.140403561325776 M9.665479652847864 -19.3399052695533 C10.03828748945254 -19.27963258969901, 10.411095326057215 -19.21935990984472, 10.899468259676757 -19.140403561325776 M10.899468259676757 -19.140403561325776 C11.25110709450369 -19.06014429193437, 11.602745929330622 -18.97988502254297, 12.11813938623539 -18.862249829261074 M10.899468259676757 -19.140403561325776 C11.353585104031044 -19.036754354991263, 11.807701948385331 -18.933105148656747, 12.11813938623539 -18.862249829261074 M12.11813938623539 -18.862249829261074 C12.395085310791004 -18.78005373257179, 12.672031235346617 -18.69785763588251, 13.316485251460602 -18.50658706670804 M12.11813938623539 -18.862249829261074 C12.40618809763843 -18.77675848371519, 12.694236809041469 -18.691267138169312, 13.316485251460602 -18.50658706670804 M13.316485251460602 -18.50658706670804 C13.617306395302736 -18.395882105013964, 13.918127539144871 -18.28517714331989, 14.489581595147794 -18.074876768247425 M13.316485251460602 -18.50658706670804 C13.67119478627302 -18.376050678998073, 14.025904321085438 -18.245514291288107, 14.489581595147794 -18.074876768247425 M14.489581595147794 -18.074876768247425 C14.888172164359684 -17.89843254702646, 15.286762733571573 -17.72198832580549, 15.632607912792382 -17.568892924097174 M14.489581595147794 -18.074876768247425 C14.791603074903247 -17.941180818308563, 15.0936245546587 -17.807484868369702, 15.632607912792382 -17.568892924097174 M15.632607912792382 -17.568892924097174 C16.01414263872998 -17.369846501960186, 16.395677364667574 -17.1708000798232, 16.740867264076783 -16.990714730406097 M15.632607912792382 -17.568892924097174 C15.86493312548226 -17.447689009448265, 16.09725833817214 -17.326485094799356, 16.740867264076783 -16.990714730406097 M16.740867264076783 -16.990714730406097 C17.017867655324324 -16.82279546539685, 17.294868046571864 -16.654876200387605, 17.809805573605697 -16.342718045390892 M16.740867264076783 -16.990714730406097 C17.110838847019412 -16.76643578263192, 17.48081042996204 -16.542156834857746, 17.809805573605697 -16.342718045390892 M17.809805573605697 -16.342718045390892 C18.147779487811214 -16.106962073496067, 18.48575340201673 -15.87120610160124, 18.835030344578712 -15.627565626425154 M17.809805573605697 -16.342718045390892 C18.037453916316302 -16.1839204162539, 18.265102259026904 -16.02512278711691, 18.835030344578712 -15.627565626425154 M18.835030344578712 -15.627565626425154 C19.125355734866694 -15.39603885355359, 19.415681125154677 -15.164512080682025, 19.81232870850187 -14.848196188198123 M18.835030344578712 -15.627565626425154 C19.17711087107256 -15.354765509691427, 19.51919139756641 -15.081965392957702, 19.81232870850187 -14.848196188198123 M19.81232870850187 -14.848196188198123 C20.180743759464196 -14.513611386642228, 20.549158810426523 -14.179026585086334, 20.737684736767985 -14.007812326905688 M19.81232870850187 -14.848196188198123 C20.11274697815432 -14.575364264331611, 20.41316524780677 -14.302532340465099, 20.737684736767985 -14.007812326905688 M20.737684736767985 -14.007812326905688 C21.077091339555263 -13.657347143727499, 21.41649794234254 -13.306881960549312, 21.607295942968648 -13.10986736009568 M20.737684736767985 -14.007812326905688 C21.058415384698865 -13.676631600441143, 21.37914603262974 -13.345450873976597, 21.607295942968648 -13.10986736009568 M21.607295942968648 -13.10986736009568 C21.88544988410119 -12.783131913433774, 22.163603825233736 -12.456396466771869, 22.417588908126582 -12.158051136245305 M21.607295942968648 -13.10986736009568 C21.826212657850874 -12.852715330081061, 22.045129372733097 -12.59556330006644, 22.417588908126582 -12.158051136245305 M22.417588908126582 -12.158051136245305 C22.713924673514246 -11.760988207369438, 23.010260438901906 -11.363925278493571, 23.165233964640635 -11.156274872382312 M22.417588908126582 -12.158051136245305 C22.569685124641016 -11.954256062366337, 22.72178134115545 -11.750460988487369, 23.165233964640635 -11.156274872382312 M23.165233964640635 -11.156274872382312 C23.35408550874958 -10.866148186890783, 23.54293705285853 -10.576021501399254, 23.847158878604247 -10.108655082055241 M23.165233964640635 -11.156274872382312 C23.321593451129527 -10.91606471273432, 23.47795293761842 -10.67585455308633, 23.847158878604247 -10.108655082055241 M23.847158878604247 -10.108655082055241 C24.039200961186367 -9.767664918061135, 24.231243043768487 -9.42667475406703, 24.4605614742735 -9.019496659696287 M23.847158878604247 -10.108655082055241 C24.048004371242786 -9.752033572064033, 24.248849863881322 -9.395412062072824, 24.4605614742735 -9.019496659696287 M24.4605614742735 -9.019496659696287 C24.593915008136552 -8.742585193321128, 24.727268541999603 -8.46567372694597, 25.00292114880834 -7.893275190886684 M24.4605614742735 -9.019496659696287 C24.596755448981547 -8.736686957130798, 24.732949423689593 -8.45387725456531, 25.00292114880834 -7.893275190886684 M25.00292114880834 -7.893275190886684 C25.17952915716416 -7.457049995764251, 25.356137165519982 -7.020824800641817, 25.472009229970325 -6.734618561215508 M25.00292114880834 -7.893275190886684 C25.152689043651723 -7.5233455950582675, 25.302456938495105 -7.15341599922985, 25.472009229970325 -6.734618561215508 M25.472009229970325 -6.734618561215508 C25.551826213671756 -6.494222523416129, 25.63164319737319 -6.25382648561675, 25.86589813421488 -5.548287939305138 M25.472009229970325 -6.734618561215508 C25.603085569338436 -6.339837511217315, 25.734161908706543 -5.945056461219121, 25.86589813421488 -5.548287939305138 M25.86589813421488 -5.548287939305138 C25.946487670104602 -5.24096511123184, 26.02707720599432 -4.933642283158542, 26.18296928754556 -4.339158212148133 M25.86589813421488 -5.548287939305138 C25.948804786929173 -5.232128940534959, 26.031711439643466 -4.91596994176478, 26.18296928754556 -4.339158212148133 M26.18296928754556 -4.339158212148133 C26.25722069136684 -3.957892946565627, 26.331472095188115 -3.5766276809831203, 26.421919776581777 -3.1121979531509023 M26.18296928754556 -4.339158212148133 C26.24400133560813 -4.025771544474777, 26.305033383670693 -3.71238487680142, 26.421919776581777 -3.1121979531509023 M26.421919776581777 -3.1121979531509023 C26.472955099722046 -2.7163780649394385, 26.523990422862315 -2.3205581767279746, 26.581767702509367 -1.872449005199798 M26.421919776581777 -3.1121979531509023 C26.472816693310705 -2.717451517734358, 26.523713610039636 -2.322705082317814, 26.581767702509367 -1.872449005199798 M26.581767702509367 -1.872449005199798 C26.60697198484129 -1.479871963349552, 26.632176267173215 -1.0872949214993062, 26.661856215913414 -0.6250057626472757 M26.581767702509367 -1.872449005199798 C26.60493172408476 -1.5116506715013582, 26.628095745660154 -1.1508523378029185, 26.661856215913414 -0.6250057626472757 M26.661856215913414 -0.6250057626472757 C26.661856215913414 -0.210855806295155, 26.661856215913414 0.20329415005696572, 26.661856215913414 0.625005762647271 M26.661856215913414 -0.6250057626472757 C26.661856215913414 -0.18301490469850717, 26.661856215913414 0.25897595325026135, 26.661856215913414 0.625005762647271 M26.661856215913414 0.625005762647271 C26.635383124441603 1.0373455310155664, 26.608910032969792 1.4496852993838618, 26.581767702509367 1.8724490051997846 M26.661856215913414 0.625005762647271 C26.641971248586028 0.9347301796280283, 26.622086281258643 1.2444545966087857, 26.581767702509367 1.8724490051997846 M26.581767702509367 1.8724490051997846 C26.520881333727736 2.3446716580966753, 26.4599949649461 2.816894310993566, 26.421919776581777 3.1121979531508885 M26.581767702509367 1.8724490051997846 C26.520463552165136 2.3479118893958852, 26.459159401820905 2.8233747735919854, 26.421919776581777 3.1121979531508885 M26.421919776581777 3.1121979531508885 C26.364871516761347 3.4051287101748082, 26.30782325694092 3.698059467198728, 26.18296928754556 4.339158212148129 M26.421919776581777 3.1121979531508885 C26.340225446749567 3.531681070736571, 26.258531116917354 3.9511641883222532, 26.18296928754556 4.339158212148129 M26.18296928754556 4.339158212148129 C26.059523802878097 4.80990934679666, 25.936078318210633 5.280660481445192, 25.865898134214884 5.548287939305125 M26.18296928754556 4.339158212148129 C26.06660404363454 4.782909320196581, 25.95023879972352 5.226660428245034, 25.865898134214884 5.548287939305125 M25.865898134214884 5.548287939305125 C25.73073991385737 5.955362964483993, 25.595581693499856 6.362437989662861, 25.47200922997033 6.734618561215495 M25.865898134214884 5.548287939305125 C25.76369002292045 5.8561224858729295, 25.661481911626012 6.1639570324407345, 25.47200922997033 6.734618561215495 M25.47200922997033 6.734618561215495 C25.37696360620295 6.9693830895030455, 25.281917982435573 7.204147617790596, 25.002921148808344 7.893275190886679 M25.47200922997033 6.734618561215495 C25.37386240737038 6.977043110577101, 25.275715584770428 7.219467659938709, 25.002921148808344 7.893275190886679 M25.002921148808344 7.893275190886679 C24.882223786235393 8.143905846779266, 24.76152642366244 8.394536502671851, 24.460561474273504 9.019496659696284 M25.002921148808344 7.893275190886679 C24.844508374907733 8.222222705381672, 24.686095601007125 8.551170219876665, 24.460561474273504 9.019496659696284 M24.460561474273504 9.019496659696284 C24.313802691121428 9.280081740121057, 24.167043907969347 9.54066682054583, 23.84715887860425 10.108655082055236 M24.460561474273504 9.019496659696284 C24.32235796268165 9.264890989150695, 24.184154451089796 9.510285318605105, 23.84715887860425 10.108655082055236 M23.84715887860425 10.108655082055236 C23.621702037982054 10.455017332889543, 23.39624519735986 10.80137958372385, 23.16523396464064 11.156274872382301 M23.84715887860425 10.108655082055236 C23.600757378758225 10.487193953885845, 23.354355878912198 10.865732825716453, 23.16523396464064 11.156274872382301 M23.16523396464064 11.156274872382301 C22.87937849590175 11.539295158523482, 22.593523027162856 11.922315444664664, 22.417588908126582 12.158051136245302 M23.16523396464064 11.156274872382301 C22.942296153907012 11.454991228712991, 22.719358343173383 11.753707585043681, 22.417588908126582 12.158051136245302 M22.417588908126582 12.158051136245302 C22.146029529609752 12.477040234417549, 21.874470151092922 12.796029332589798, 21.60729594296866 13.10986736009567 M22.417588908126582 12.158051136245302 C22.194095891331838 12.420578750885326, 21.97060287453709 12.68310636552535, 21.60729594296866 13.10986736009567 M21.60729594296866 13.10986736009567 C21.397051052344683 13.326962471091466, 21.186806161720703 13.54405758208726, 20.73768473676799 14.007812326905684 M21.60729594296866 13.10986736009567 C21.410548107006427 13.313025654024418, 21.213800271044192 13.516183947953166, 20.73768473676799 14.007812326905684 M20.73768473676799 14.007812326905684 C20.38367046102524 14.329318725430795, 20.029656185282487 14.650825123955904, 19.812328708501887 14.848196188198111 M20.73768473676799 14.007812326905684 C20.52604725427677 14.200015888883275, 20.31440977178555 14.392219450860864, 19.812328708501887 14.848196188198111 M19.812328708501887 14.848196188198111 C19.499437531464178 15.097718575501778, 19.18654635442647 15.347240962805444, 18.835030344578715 15.627565626425152 M19.812328708501887 14.848196188198111 C19.50456239350511 15.09363163440244, 19.196796078508335 15.339067080606767, 18.835030344578715 15.627565626425152 M18.835030344578715 15.627565626425152 C18.46794522813454 15.883628312798034, 18.100860111690366 16.139690999170917, 17.809805573605708 16.34271804539089 M18.835030344578715 15.627565626425152 C18.452502083558862 15.894400781931074, 18.06997382253901 16.161235937436995, 17.809805573605708 16.34271804539089 M17.809805573605708 16.34271804539089 C17.520899418511846 16.51785465440981, 17.23199326341798 16.69299126342873, 16.740867264076787 16.990714730406093 M17.809805573605708 16.34271804539089 C17.45076572895466 16.560370109170684, 17.091725884303614 16.778022172950475, 16.740867264076787 16.990714730406093 M16.740867264076787 16.990714730406093 C16.371966402930035 17.183170073374075, 16.003065541783286 17.375625416342054, 15.632607912792386 17.56889292409717 M16.740867264076787 16.990714730406093 C16.31462852959885 17.213083205164292, 15.888389795120911 17.435451679922494, 15.632607912792386 17.56889292409717 M15.632607912792386 17.56889292409717 C15.19022904907362 17.764720924362727, 14.747850185354855 17.96054892462828, 14.489581595147804 18.07487676824742 M15.632607912792386 17.56889292409717 C15.38372424928149 17.67906633906188, 15.134840585770595 17.78923975402659, 14.489581595147804 18.07487676824742 M14.489581595147804 18.07487676824742 C14.071145943793164 18.22886495592269, 13.652710292438524 18.382853143597956, 13.316485251460616 18.506587066708033 M14.489581595147804 18.07487676824742 C14.153929776613404 18.198399740199477, 13.818277958079006 18.321922712151533, 13.316485251460616 18.506587066708033 M13.316485251460616 18.506587066708033 C13.022081458688602 18.593964567045724, 12.72767766591659 18.681342067383415, 12.118139386235413 18.86224982926107 M13.316485251460616 18.506587066708033 C13.073818276603205 18.57860935106077, 12.831151301745795 18.650631635413504, 12.118139386235413 18.86224982926107 M12.118139386235413 18.86224982926107 C11.841885867085523 18.925302892284346, 11.565632347935635 18.98835595530762, 10.899468259676766 19.140403561325773 M12.118139386235413 18.86224982926107 C11.704414434441837 18.956679849700333, 11.290689482648263 19.051109870139594, 10.899468259676766 19.140403561325773 M10.899468259676766 19.140403561325773 C10.513978071395984 19.20272662544595, 10.1284878831152 19.26504968956613, 9.665479652847878 19.3399052695533 M10.899468259676766 19.140403561325773 C10.487333395607994 19.207034329994805, 10.075198531539224 19.27366509866384, 9.665479652847878 19.3399052695533 M9.665479652847878 19.3399052695533 C9.350800452904046 19.370261993514774, 9.036121252960214 19.400618717476245, 8.4212442896239 19.45993515863156 M9.665479652847878 19.3399052695533 C9.339717145742677 19.371331186827003, 9.013954638637475 19.402757104100704, 8.4212442896239 19.45993515863156 M8.4212442896239 19.45993515863156 C8.11979649215219 19.469602002763935, 7.818348694680481 19.479268846896307, 7.1718750000000036 19.5 M8.4212442896239 19.45993515863156 C7.978750298473939 19.474125079665434, 7.536256307323977 19.48831500069931, 7.1718750000000036 19.5 M7.1718750000000036 19.5 C7.171875000000003 19.5, 7.171875000000002 19.5, 7.171875 19.5 M7.1718750000000036 19.5 C7.171875000000003 19.5, 7.171875000000001 19.5, 7.171875 19.5 M7.171875 19.5 C2.23549105485018 19.5, -2.70089289029964 19.5, -7.1718749999999964 19.5 M7.171875 19.5 C1.5225875174614663 19.5, -4.1266999650770675 19.5, -7.1718749999999964 19.5 M-7.1718749999999964 19.5 C-7.462180941209095 19.49069045351166, -7.752486882418192 19.48138090702332, -8.421244289623893 19.45993515863156 M-7.1718749999999964 19.5 C-7.665292105136416 19.484177073816408, -8.158709210272836 19.468354147632816, -8.421244289623893 19.45993515863156 M-8.421244289623893 19.45993515863156 C-8.684380379913055 19.434550736468815, -8.947516470202215 19.409166314306066, -9.665479652847871 19.3399052695533 M-8.421244289623893 19.45993515863156 C-8.911303971124992 19.412659690540146, -9.401363652626092 19.365384222448732, -9.665479652847871 19.3399052695533 M-9.665479652847871 19.3399052695533 C-10.153826491756295 19.26095313982488, -10.642173330664717 19.182001010096464, -10.899468259676759 19.140403561325773 M-9.665479652847871 19.3399052695533 C-9.954735628168947 19.293140606676978, -10.243991603490024 19.246375943800658, -10.899468259676759 19.140403561325773 M-10.899468259676759 19.140403561325773 C-11.255242921992048 19.05920031629895, -11.611017584307337 18.977997071272124, -12.118139386235388 18.862249829261074 M-10.899468259676759 19.140403561325773 C-11.227932758319962 19.06543368294163, -11.556397256963166 18.990463804557486, -12.118139386235388 18.862249829261074 M-12.118139386235388 18.862249829261074 C-12.40782920885125 18.776271410521595, -12.697519031467113 18.69029299178212, -13.316485251460593 18.506587066708043 M-12.118139386235388 18.862249829261074 C-12.392048174628274 18.780955138642636, -12.665956963021161 18.699660448024197, -13.316485251460593 18.506587066708043 M-13.316485251460593 18.506587066708043 C-13.689917132118323 18.369160682659533, -14.063349012776053 18.231734298611027, -14.489581595147797 18.074876768247425 M-13.316485251460593 18.506587066708043 C-13.553523419857875 18.419354829581035, -13.790561588255159 18.332122592454027, -14.489581595147797 18.074876768247425 M-14.489581595147797 18.074876768247425 C-14.733220043133986 17.96702525460171, -14.976858491120177 17.859173740956, -15.63260791279238 17.568892924097174 M-14.489581595147797 18.074876768247425 C-14.776386053637514 17.947916942226005, -15.063190512127232 17.82095711620459, -15.63260791279238 17.568892924097174 M-15.63260791279238 17.568892924097174 C-16.044540924788794 17.35398773559433, -16.45647393678521 17.13908254709149, -16.74086726407678 16.990714730406097 M-15.63260791279238 17.568892924097174 C-15.997257321026193 17.378655561390687, -16.361906729260006 17.1884181986842, -16.74086726407678 16.990714730406097 M-16.74086726407678 16.990714730406097 C-17.019236521602778 16.821965650614498, -17.29760577912878 16.653216570822902, -17.809805573605686 16.3427180453909 M-16.74086726407678 16.990714730406097 C-16.981938427301007 16.844575974568166, -17.223009590525233 16.698437218730234, -17.809805573605686 16.3427180453909 M-17.809805573605686 16.3427180453909 C-18.136211695666944 16.11503126453426, -18.462617817728198 15.887344483677618, -18.835030344578712 15.627565626425156 M-17.809805573605686 16.3427180453909 C-18.182709508700533 16.082596403019913, -18.555613443795377 15.822474760648923, -18.835030344578712 15.627565626425156 M-18.835030344578712 15.627565626425156 C-19.055721860865496 15.451570015034338, -19.276413377152277 15.275574403643521, -19.81232870850187 14.848196188198125 M-18.835030344578712 15.627565626425156 C-19.215659198382674 15.324024244475686, -19.596288052186637 15.020482862526215, -19.81232870850187 14.848196188198125 M-19.81232870850187 14.848196188198125 C-20.034216242352382 14.646683800777524, -20.256103776202895 14.445171413356922, -20.737684736767974 14.007812326905697 M-19.81232870850187 14.848196188198125 C-20.028780430356324 14.651620461408639, -20.245232152210782 14.455044734619152, -20.737684736767974 14.007812326905697 M-20.737684736767974 14.007812326905697 C-20.9887163554909 13.748601570495083, -21.239747974213827 13.489390814084471, -21.607295942968655 13.109867360095677 M-20.737684736767974 14.007812326905697 C-21.042933815538557 13.692617591659625, -21.348182894309144 13.377422856413551, -21.607295942968655 13.109867360095677 M-21.607295942968655 13.109867360095677 C-21.868931544583432 12.802535294951483, -22.13056714619821 12.495203229807288, -22.41758890812658 12.158051136245307 M-21.607295942968655 13.109867360095677 C-21.90357776558901 12.76183787233251, -22.199859588209364 12.413808384569341, -22.41758890812658 12.158051136245307 M-22.41758890812658 12.158051136245307 C-22.57376871527334 11.948784422941783, -22.729948522420102 11.739517709638257, -23.165233964640635 11.156274872382316 M-22.41758890812658 12.158051136245307 C-22.599305742133808 11.91456713341976, -22.781022576141037 11.671083130594216, -23.165233964640635 11.156274872382316 M-23.165233964640635 11.156274872382316 C-23.366490177900527 10.84709128395487, -23.567746391160416 10.537907695527423, -23.847158878604244 10.108655082055249 M-23.165233964640635 11.156274872382316 C-23.400289270666573 10.795166801139006, -23.63534457669251 10.434058729895698, -23.847158878604244 10.108655082055249 M-23.847158878604244 10.108655082055249 C-24.085464071175238 9.685520081628022, -24.323769263746232 9.262385081200796, -24.4605614742735 9.019496659696289 M-23.847158878604244 10.108655082055249 C-23.98971709258081 9.855528537555346, -24.132275306557382 9.602401993055441, -24.4605614742735 9.019496659696289 M-24.4605614742735 9.019496659696289 C-24.59285804493666 8.744780000021096, -24.725154615599816 8.470063340345904, -25.00292114880834 7.893275190886686 M-24.4605614742735 9.019496659696289 C-24.65221783774969 8.62151812014874, -24.843874201225876 8.223539580601193, -25.00292114880834 7.893275190886686 M-25.00292114880834 7.893275190886686 C-25.134706947393198 7.5677617204770025, -25.26649274597806 7.242248250067319, -25.472009229970325 6.73461856121551 M-25.00292114880834 7.893275190886686 C-25.169343566133467 7.482208602535079, -25.33576598345859 7.07114201418347, -25.472009229970325 6.73461856121551 M-25.472009229970325 6.73461856121551 C-25.56732970568684 6.4475284756127, -25.662650181403354 6.16043839000989, -25.86589813421488 5.5482879393051325 M-25.472009229970325 6.73461856121551 C-25.61724218797121 6.297200031446257, -25.762475145972097 5.859781501677004, -25.86589813421488 5.5482879393051325 M-25.86589813421488 5.5482879393051325 C-25.966804879720563 5.1634867854318145, -26.06771162522625 4.778685631558496, -26.182969287545557 4.339158212148136 M-25.86589813421488 5.5482879393051325 C-25.96835434902338 5.157577987435933, -26.07081056383188 4.766868035566733, -26.182969287545557 4.339158212148136 M-26.182969287545557 4.339158212148136 C-26.26694679876308 3.9079514406994513, -26.3509243099806 3.476744669250767, -26.421919776581777 3.112197953150904 M-26.182969287545557 4.339158212148136 C-26.254287898946185 3.972952215799782, -26.32560651034681 3.6067462194514284, -26.421919776581777 3.112197953150904 M-26.421919776581777 3.112197953150904 C-26.45621074184014 2.846243998124018, -26.49050170709851 2.5802900430971323, -26.581767702509364 1.872449005199809 M-26.421919776581777 3.112197953150904 C-26.467461275037873 2.758987084311499, -26.513002773493966 2.405776215472094, -26.581767702509364 1.872449005199809 M-26.581767702509364 1.872449005199809 C-26.597906786166746 1.6210697500022113, -26.614045869824132 1.3696904948046136, -26.661856215913414 0.6250057626472781 M-26.581767702509364 1.872449005199809 C-26.607972055790913 1.4642950510664106, -26.634176409072463 1.056141096933012, -26.661856215913414 0.6250057626472781 M-26.661856215913414 0.6250057626472781 C-26.661856215913414 0.1883801950848802, -26.661856215913414 -0.24824537247751777, -26.661856215913414 -0.6250057626472687 M-26.661856215913414 0.6250057626472781 C-26.661856215913414 0.2030667080333795, -26.661856215913414 -0.21887234658051913, -26.661856215913414 -0.6250057626472687 M-26.661856215913414 -0.6250057626472687 C-26.63079299548485 -1.1088404946024197, -26.599729775056282 -1.5926752265575708, -26.581767702509367 -1.8724490051997822 M-26.661856215913414 -0.6250057626472687 C-26.634675615103244 -1.048365560051769, -26.60749501429307 -1.4717253574562692, -26.581767702509367 -1.8724490051997822 M-26.581767702509367 -1.8724490051997822 C-26.52132672978217 -2.3412172542518737, -26.460885757054974 -2.8099855033039653, -26.421919776581777 -3.112197953150895 M-26.581767702509367 -1.8724490051997822 C-26.539896029305492 -2.1971974340719265, -26.49802435610162 -2.521945862944071, -26.421919776581777 -3.112197953150895 M-26.421919776581777 -3.112197953150895 C-26.36462531318939 -3.406392913481678, -26.307330849797 -3.700587873812461, -26.18296928754556 -4.339158212148126 M-26.421919776581777 -3.112197953150895 C-26.366193294878432 -3.398341658901499, -26.310466813175086 -3.6844853646521023, -26.18296928754556 -4.339158212148126 M-26.18296928754556 -4.339158212148126 C-26.10206767158759 -4.647671136778019, -26.02116605562962 -4.956184061407913, -25.865898134214884 -5.548287939305123 M-26.18296928754556 -4.339158212148126 C-26.082340472543606 -4.7228994965548745, -25.981711657541656 -5.106640780961623, -25.865898134214884 -5.548287939305123 M-25.865898134214884 -5.548287939305123 C-25.71082061103971 -6.015356730860868, -25.555743087864542 -6.482425522416614, -25.472009229970332 -6.734618561215485 M-25.865898134214884 -5.548287939305123 C-25.725291518780676 -5.971772662371126, -25.584684903346467 -6.395257385437128, -25.472009229970332 -6.734618561215485 M-25.472009229970332 -6.734618561215485 C-25.28944211322355 -7.185562869275113, -25.106874996476773 -7.6365071773347415, -25.002921148808344 -7.893275190886676 M-25.472009229970332 -6.734618561215485 C-25.31059048200622 -7.133325989506033, -25.149171734042103 -7.53203341779658, -25.002921148808344 -7.893275190886676 M-25.002921148808344 -7.893275190886676 C-24.79245136842465 -8.330320193185294, -24.58198158804096 -8.767365195483912, -24.460561474273504 -9.019496659696282 M-25.002921148808344 -7.893275190886676 C-24.8377404955546 -8.236276351667874, -24.672559842300853 -8.579277512449073, -24.460561474273504 -9.019496659696282 M-24.460561474273504 -9.019496659696282 C-24.25772062394368 -9.37966112932025, -24.05487977361385 -9.739825598944217, -23.847158878604247 -10.108655082055243 M-24.460561474273504 -9.019496659696282 C-24.289209100156025 -9.323750151251259, -24.117856726038543 -9.628003642806236, -23.847158878604247 -10.108655082055243 M-23.847158878604247 -10.108655082055243 C-23.64939612668137 -10.412471775743319, -23.451633374758494 -10.716288469431392, -23.16523396464064 -11.156274872382308 M-23.847158878604247 -10.108655082055243 C-23.585458002740836 -10.510697903906257, -23.32375712687742 -10.91274072575727, -23.16523396464064 -11.156274872382308 M-23.16523396464064 -11.156274872382308 C-22.918572342805234 -11.486778974305729, -22.671910720969823 -11.817283076229149, -22.417588908126586 -12.158051136245302 M-23.16523396464064 -11.156274872382308 C-22.97705096742073 -11.40842294483326, -22.78886797020082 -11.660571017284212, -22.417588908126586 -12.158051136245302 M-22.417588908126586 -12.158051136245302 C-22.18438339039245 -12.43198760714569, -21.95117787265832 -12.705924078046078, -21.607295942968662 -13.10986736009567 M-22.417588908126586 -12.158051136245302 C-22.18585303712742 -12.430261276465528, -21.954117166128256 -12.702471416685755, -21.607295942968662 -13.10986736009567 M-21.607295942968662 -13.10986736009567 C-21.33514650012159 -13.39088400372007, -21.062997057274515 -13.671900647344469, -20.737684736767996 -14.007812326905677 M-21.607295942968662 -13.10986736009567 C-21.31818910475137 -13.408393906667872, -21.02908226653408 -13.706920453240075, -20.737684736767996 -14.007812326905677 M-20.737684736767996 -14.007812326905677 C-20.393466602150596 -14.320422129252432, -20.0492484675332 -14.633031931599188, -19.812328708501887 -14.848196188198107 M-20.737684736767996 -14.007812326905677 C-20.369256380018975 -14.342409212424998, -20.000828023269953 -14.677006097944318, -19.812328708501887 -14.848196188198107 M-19.812328708501887 -14.848196188198107 C-19.572003816634094 -15.039848894148715, -19.331678924766297 -15.231501600099325, -18.83503034457872 -15.627565626425149 M-19.812328708501887 -14.848196188198107 C-19.4233534459369 -15.158393609027232, -19.034378183371913 -15.468591029856356, -18.83503034457872 -15.627565626425149 M-18.83503034457872 -15.627565626425149 C-18.467702321812617 -15.883797753732962, -18.100374299046514 -16.140029881040775, -17.80980557360571 -16.342718045390885 M-18.83503034457872 -15.627565626425149 C-18.464218535289138 -15.886227892401052, -18.093406725999557 -16.144890158376956, -17.80980557360571 -16.342718045390885 M-17.80980557360571 -16.342718045390885 C-17.5424147247793 -16.504811949312504, -17.275023875952886 -16.66690585323412, -16.74086726407679 -16.99071473040609 M-17.80980557360571 -16.342718045390885 C-17.44867200004407 -16.561639339940395, -17.08753842648243 -16.78056063448991, -16.74086726407679 -16.99071473040609 M-16.74086726407679 -16.99071473040609 C-16.323611060598335 -17.208397024495447, -15.906354857119876 -17.426079318584804, -15.63260791279239 -17.56889292409717 M-16.74086726407679 -16.99071473040609 C-16.395438965271644 -17.17092445263535, -16.0500106664665 -17.35113417486461, -15.63260791279239 -17.56889292409717 M-15.63260791279239 -17.56889292409717 C-15.19416830532747 -17.762977132473033, -14.755728697862548 -17.9570613408489, -14.489581595147806 -18.07487676824742 M-15.63260791279239 -17.56889292409717 C-15.259939724483608 -17.73386207625244, -14.887271536174827 -17.89883122840771, -14.489581595147806 -18.07487676824742 M-14.489581595147806 -18.07487676824742 C-14.094147222001624 -18.22040027292049, -13.69871284885544 -18.36592377759356, -13.316485251460618 -18.506587066708033 M-14.489581595147806 -18.07487676824742 C-14.126411148349122 -18.208526849780146, -13.763240701550437 -18.34217693131287, -13.316485251460618 -18.506587066708033 M-13.316485251460618 -18.506587066708033 C-12.964015615861182 -18.611198204403074, -12.611545980261747 -18.715809342098115, -12.118139386235413 -18.862249829261067 M-13.316485251460618 -18.506587066708033 C-13.011294704634137 -18.59716601902826, -12.706104157807655 -18.68774497134849, -12.118139386235413 -18.862249829261067 M-12.118139386235413 -18.862249829261067 C-11.82523689474678 -18.929102911575963, -11.532334403258147 -18.995955993890863, -10.899468259676768 -19.140403561325773 M-12.118139386235413 -18.862249829261067 C-11.775954094059209 -18.940351389232575, -11.433768801883005 -19.01845294920408, -10.899468259676768 -19.140403561325773 M-10.899468259676768 -19.140403561325773 C-10.602878954612125 -19.188353820084213, -10.306289649547484 -19.23630407884265, -9.66547965284788 -19.3399052695533 M-10.899468259676768 -19.140403561325773 C-10.482432703096784 -19.207826635954582, -10.0653971465168 -19.27524971058339, -9.66547965284788 -19.3399052695533 M-9.66547965284788 -19.3399052695533 C-9.366794816041983 -19.36871903653889, -9.068109979236088 -19.397532803524484, -8.421244289623903 -19.45993515863156 M-9.66547965284788 -19.3399052695533 C-9.337169290228559 -19.371576975384205, -9.008858927609236 -19.40324868121511, -8.421244289623903 -19.45993515863156 M-8.421244289623903 -19.45993515863156 C-7.9869281329472015 -19.473862832431067, -7.5526119762705 -19.48779050623057, -7.171875000000006 -19.5 M-8.421244289623903 -19.45993515863156 C-8.15877893421424 -19.468351911721726, -7.896313578804576 -19.47676866481189, -7.171875000000006 -19.5 M-7.171875000000006 -19.5 C-7.171875000000004 -19.5, -7.171875000000003 -19.5, -7.171875 -19.5 M-7.171875000000006 -19.5 C-7.171875000000004 -19.5, -7.171875000000003 -19.5, -7.171875 -19.5" stroke="#9370DB" stroke-width="1.3" fill="none" stroke-dasharray="0 0" style=""/></g><g class="label" style="" transform="translate(-14.296875, -12)"><rect/><foreignObject width="28.59375" height="24"><div xmlns="http://www.w3.org/1999/xhtml" style="display: table-cell; white-space: nowrap; line-height: 1.5; max-width: 200px; text-align: center;"><span class="nodeLabel"><p>END</p></span></div></foreignObject></g></g><g class="node default" id="my-svg-flowchart-REF-37" data-look="classic" transform="translate(1189.765625, 1715)"><rect class="basic label-container" style="" x="-108.234375" y="-39" width="216.46875" height="78"/><g class="label" style="" transform="translate(-78.234375, -24)"><rect/><foreignObject width="156.46875" height="48"><div xmlns="http://www.w3.org/1999/xhtml" style="display: table-cell; white-space: nowrap; line-height: 1.5; max-width: 200px; text-align: center;"><span class="nodeLabel"><p>Charge-Nurse Referee<br />qwen3.7-max</p></span></div></foreignObject></g></g><g class="node default" id="my-svg-flowchart-SOUT-39" data-look="classic" transform="translate(859.8828125, 1295)"><rect class="basic label-container" style="" x="-119.3828125" y="-51" width="238.765625" height="102"/><g class="label" style="" transform="translate(-89.3828125, -36)"><rect/><foreignObject width="178.765625" height="72"><div xmlns="http://www.w3.org/1999/xhtml" style="display: table-cell; white-space: nowrap; line-height: 1.5; max-width: 200px; text-align: center;"><span class="nodeLabel"><p>assignments_society.json<br />conflict_ledger.json<br />society_rounds.json</p></span></div></foreignObject></g></g><g class="node default" id="my-svg-flowchart-QWEN-40" data-look="classic" transform="translate(1185.26171875, 2134)"><rect class="basic label-container" style="" x="-130" y="-75" width="260" height="150"/><g class="label" style="" transform="translate(-100, -60)"><rect/><foreignObject width="200" height="120"><div xmlns="http://www.w3.org/1999/xhtml" style="display: table; white-space: break-spaces; line-height: 1.5; max-width: 200px; text-align: center; width: 200px;"><span class="nodeLabel"><p>Qwen Cloud · dashscope-intl (Alibaba Cloud)<br />— or deterministic offline path (REHABPANEL_OFFLINE) —</p></span></div></foreignObject></g></g><g class="node default" id="my-svg-flowchart-SCORE-48" data-look="classic" transform="translate(385.5, 1715)"><rect class="basic label-container" style="" x="-130" y="-63" width="260" height="126"/><g class="label" style="" transform="translate(-100, -48)"><rect/><foreignObject width="200" height="96"><div xmlns="http://www.w3.org/1999/xhtml" style="display: table; white-space: break-spaces; line-height: 1.5; max-width: 200px; text-align: center; width: 200px;"><span class="nodeLabel"><p>scorer.py · pure Python, no LLM<br />shared objective function · CI-locked</p></span></div></foreignObject></g></g><g class="node default" id="my-svg-flowchart-BENCH-53" data-look="classic" transform="translate(138, 2134)"><rect class="basic label-container" style="" x="-130" y="-39" width="260" height="78"/><g class="label" style="" transform="translate(-100, -24)"><rect/><foreignObject width="200" height="48"><div xmlns="http://www.w3.org/1999/xhtml" style="display: table; white-space: break-spaces; line-height: 1.5; max-width: 200px; text-align: center; width: 200px;"><span class="nodeLabel"><p>benchmark.py · seeds × scarcity sweep</p></span></div></foreignObject></g></g><g class="node default" id="my-svg-flowchart-RES-55" data-look="classic" transform="translate(138, 2298)"><rect class="basic label-container" style="" x="-130" y="-39" width="260" height="78"/><g class="label" style="" transform="translate(-100, -24)"><rect/><foreignObject width="200" height="48"><div xmlns="http://www.w3.org/1999/xhtml" style="display: table; white-space: break-spaces; line-height: 1.5; max-width: 200px; text-align: center; width: 200px;"><span class="nodeLabel"><p>results/gap.png + metrics.json</p></span></div></foreignObject></g></g><g class="node default" id="my-svg-flowchart-UI-57" data-look="classic" transform="translate(533.12890625, 2134)"><rect class="basic label-container" style="" x="-130" y="-51" width="260" height="102"/><g class="label" style="" transform="translate(-100, -36)"><rect/><foreignObject width="200" height="72"><div xmlns="http://www.w3.org/1999/xhtml" style="display: table; white-space: break-spaces; line-height: 1.5; max-width: 200px; text-align: center; width: 200px;"><span class="nodeLabel"><p>ui/ · calendar · conflict ledger · scoreboard<br />scrub the rounds</p></span></div></foreignObject></g></g></g></g></g><defs><filter id="my-svg-drop-shadow" height="130%" width="130%"><feDropShadow dx="4" dy="4" stdDeviation="0" flood-opacity="0.06" flood-color="#000000"/></filter></defs><defs><filter id="my-svg-drop-shadow-small" height="150%" width="150%"><feDropShadow dx="2" dy="2" stdDeviation="0" flood-opacity="0.06" flood-color="#000000"/></filter></defs></svg>